<?xml version="1.0" encoding="UTF-8" standalone="no"?>
<svg
   xmlns:dc="http://purl.org/dc/elements/1.1/"
   xmlns:cc="http://creativecommons.org/ns#"
   xmlns:rdf="http://www.w3.org/1999/02/22-rdf-syntax-ns#"
   xmlns:svg="http://www.w3.org/2000/svg"
   xmlns="http://www.w3.org/2000/svg"
   xmlns:sodipodi="http://sodipodi.sourceforge.net/DTD/sodipodi-0.dtd"
   xmlns:inkscape="http://www.inkscape.org/namespaces/inkscape"
   width="820"
   height="555"
   id="svg2"
   version="1.1"
   inkscape:version="0.48.3.1 r9886"
   sodipodi:docname="Flowchart.svg">
  <metadata
     id="metadata696">
    <rdf:RDF>
      <cc:Work
         rdf:about="">
        <dc:format>image/svg+xml</dc:format>
        <dc:type
           rdf:resource="http://purl.org/dc/dcmitype/StillImage" />
      </cc:Work>
    </rdf:RDF>
  </metadata>
  <defs
     id="defs694" />
  <sodipodi:namedview
     pagecolor="#ffffff"
     bordercolor="#666666"
     borderopacity="1"
     objecttolerance="10"
     gridtolerance="10"
     guidetolerance="10"
     inkscape:pageopacity="0"
     inkscape:pageshadow="2"
     inkscape:window-width="1920"
     inkscape:window-height="1018"
     id="namedview692"
     showgrid="false"
     inkscape:zoom="1.9247102"
     inkscape:cx="420.44283"
     inkscape:cy="89.098395"
     inkscape:window-x="-8"
     inkscape:window-y="-8"
     inkscape:window-maximized="1"
     inkscape:current-layer="svg2" />
  <rect
     stroke="#000000"
     stroke-width="0"
     fill="#ffffff"
     x="0"
     y="0"
     width="819"
     height="569"
     id="rect4" />
  <g
     transform="translate(101.0,100.0)"
     id="g6">
    <line
       x1="0.0"
       y1="0.0"
       x2="0.0"
       y2="47.5"
       stroke-dasharray="23, 0"
       stroke="#333333"
       stroke-width="3"
       id="line8" />
    <g
       transform="translate(0.0,50.0) rotate(270.0)"
       id="g10">
      <path
         d="M13.0,-7.0 L3.0,0 L13.0,7.0 M0,0z"
         fill="none"
         stroke="#333333"
         stroke-width="3.0"
         id="path12" />
    </g>
  </g>
  <g
     transform="translate(1.0,150.0) rotate(0 100.0 50.0)"
     id="g14">
    <defs
       id="defs16">
      <linearGradient
         id="g1"
         x1="50%"
         y1="-25%"
         x2="50%"
         y2="100%">
        <stop
           stop-color="white"
           offset="0%"
           id="stop19" />
        <stop
           stop-color="#339966"
           offset="100%"
           id="stop21" />
      </linearGradient>
    </defs>
    <g
       transform="translate(4.0,4.0)"
       id="g23">
      <path
         d="M190.0,0 Q200.0,0 200.0,10 L200.0,90.0 Q200.0,100.0 190.0,100.0 L10,100.0 Q0,100.0 0,90.0 L0,10 Q0,0 10,0 Z"
         stroke="#A8A8A8"
         stroke-width="0"
         stroke-opacity=".6"
         fill-opacity=".6"
         fill="#A8A8A8"
         id="path25" />
    </g>
    <path
       d="M190.0,0 Q200.0,0 200.0,10 L200.0,90.0 Q200.0,100.0 190.0,100.0 L10,100.0 Q0,100.0 0,90.0 L0,10 Q0,0 10,0 Z"
       stroke="#333333"
       stroke-width="2"
       style="fill:url(#g1)"
       id="path27" />
    <g
       transform="translate(0.0,47.0)"
       id="g29">
      <text
         x="100.0"
         style="text-anchor: middle"
         y="-3.0"
         id="text31">
        <tspan
           xml:space="preserve"
           font-size="18"
           font-family="Verdana"
           fill="#000000"
           font-weight="bold"
           id="tspan33">Parse</tspan>      </text>
      <text
         x="100.0"
         style="text-anchor: middle"
         y="19.2"
         id="text35">
        <tspan
           xml:space="preserve"
           font-size="18"
           font-family="Verdana"
           fill="#000000"
           font-weight="bold"
           id="tspan37">receptor</tspan>      </text>
    </g>
  </g>
  <g
     transform="translate(1.0,300.0) rotate(0 100.0 50.0)"
     id="g39">
    <defs
       id="defs41">
      <linearGradient
         id="g2"
         x1="50%"
         y1="-25%"
         x2="50%"
         y2="100%">
        <stop
           stop-color="white"
           offset="0%"
           id="stop44" />
        <stop
           stop-color="#339966"
           offset="100%"
           id="stop46" />
      </linearGradient>
    </defs>
    <g
       transform="translate(4.0,4.0)"
       id="g48">
      <path
         d="M190.0,0 Q200.0,0 200.0,10 L200.0,90.0 Q200.0,100.0 190.0,100.0 L10,100.0 Q0,100.0 0,90.0 L0,10 Q0,0 10,0 Z"
         stroke="#A8A8A8"
         stroke-width="0"
         stroke-opacity=".6"
         fill-opacity=".6"
         fill="#A8A8A8"
         id="path50" />
    </g>
    <path
       d="M190.0,0 Q200.0,0 200.0,10 L200.0,90.0 Q200.0,100.0 190.0,100.0 L10,100.0 Q0,100.0 0,90.0 L0,10 Q0,0 10,0 Z"
       stroke="#333333"
       stroke-width="2"
       style="fill:url(#g2)"
       id="path52" />
    <g
       transform="translate(0.0,47.0)"
       id="g54">
      <text
         x="100.0"
         style="text-anchor: middle"
         y="-3.0"
         id="text56">
        <tspan
           xml:space="preserve"
           font-size="18"
           font-family="Verdana"
           fill="#000000"
           font-weight="bold"
           id="tspan58">Create</tspan>      </text>
      <text
         x="100.0"
         style="text-anchor: middle"
         y="19.2"
         id="text60">
        <tspan
           xml:space="preserve"
           font-size="18"
           font-family="Verdana"
           fill="#000000"
           font-weight="bold"
           id="tspan62">thread pool</tspan>      </text>
    </g>
  </g>
  <g
     transform="translate(1.0,450.0) rotate(0 100.0 50.0)"
     id="g64">
    <defs
       id="defs66">
      <linearGradient
         id="g3"
         x1="50%"
         y1="-25%"
         x2="50%"
         y2="100%">
        <stop
           stop-color="white"
           offset="0%"
           id="stop69" />
        <stop
           stop-color="#339966"
           offset="100%"
           id="stop71" />
      </linearGradient>
    </defs>
    <g
       transform="translate(4.0,4.0)"
       id="g73">
      <path
         d="M190.0,0 Q200.0,0 200.0,10 L200.0,90.0 Q200.0,100.0 190.0,100.0 L10,100.0 Q0,100.0 0,90.0 L0,10 Q0,0 10,0 Z"
         stroke="#A8A8A8"
         stroke-width="0"
         stroke-opacity=".6"
         fill-opacity=".6"
         fill="#A8A8A8"
         id="path75" />
    </g>
    <path
       d="M190.0,0 Q200.0,0 200.0,10 L200.0,90.0 Q200.0,100.0 190.0,100.0 L10,100.0 Q0,100.0 0,90.0 L0,10 Q0,0 10,0 Z"
       stroke="#333333"
       stroke-width="2"
       style="fill:url(#g3)"
       id="path77" />
    <g
       transform="translate(0.0,37.0)"
       id="g79">
      <text
         x="100.0"
         style="text-anchor: middle"
         y="-3.0"
         id="text81">
        <tspan
           xml:space="preserve"
           font-size="18"
           font-family="Verdana"
           fill="#000000"
           font-weight="bold"
           id="tspan83">Precalculate</tspan>      </text>
      <text
         x="100.0"
         style="text-anchor: middle"
         y="19.2"
         id="text85">
        <tspan
           xml:space="preserve"
           font-size="18"
           font-family="Verdana"
           fill="#000000"
           font-weight="bold"
           id="tspan87">scoring function</tspan>      </text>
      <text
         x="100.0"
         style="text-anchor: middle"
         y="41.4"
         id="text89">
        <tspan
           xml:space="preserve"
           font-size="18"
           font-family="Verdana"
           fill="#FFFFFF"
           font-weight="bold"
           id="tspan91">in parallel</tspan>      </text>
    </g>
  </g>
  <g
     transform="translate(601.0,450.0) rotate(0 100.0 50.0)"
     id="g93">
    <defs
       id="defs95">
      <linearGradient
         id="g4"
         x1="50%"
         y1="-25%"
         x2="50%"
         y2="100%">
        <stop
           stop-color="white"
           offset="0%"
           id="stop98" />
        <stop
           stop-color="#339966"
           offset="100%"
           id="stop100" />
      </linearGradient>
    </defs>
    <g
       transform="translate(4.0,4.0)"
       id="g102">
      <path
         d="M190.0,0 Q200.0,0 200.0,10 L200.0,90.0 Q200.0,100.0 190.0,100.0 L10,100.0 Q0,100.0 0,90.0 L0,10 Q0,0 10,0 Z"
         stroke="#A8A8A8"
         stroke-width="0"
         stroke-opacity=".6"
         fill-opacity=".6"
         fill="#A8A8A8"
         id="path104" />
    </g>
    <path
       d="M190.0,0 Q200.0,0 200.0,10 L200.0,90.0 Q200.0,100.0 190.0,100.0 L10,100.0 Q0,100.0 0,90.0 L0,10 Q0,0 10,0 Z"
       stroke="#333333"
       stroke-width="2"
       style="fill:url(#g4)"
       id="path106" />
    <g
       transform="translate(0.0,58.0)"
       id="g108">
      <text
         x="100.0"
         style="text-anchor: middle"
         y="-3.0"
         id="text110">
        <tspan
           xml:space="preserve"
           font-size="18"
           font-family="Verdana"
           fill="#000000"
           font-weight="bold"
           id="tspan112">Parse ligand</tspan>      </text>
    </g>
  </g>
  <g
     transform="translate(101.0,250.0)"
     id="g114">
    <line
       x1="0.0"
       y1="0.0"
       x2="0.0"
       y2="47.5"
       stroke-dasharray="23, 0"
       stroke="#333333"
       stroke-width="3"
       id="line116" />
    <g
       transform="translate(0.0,50.0) rotate(270.0)"
       id="g118">
      <path
         d="M13.0,-7.0 L3.0,0 L13.0,7.0 M0,0z"
         fill="none"
         stroke="#333333"
         stroke-width="3.0"
         id="path120" />
    </g>
  </g>
  <g
     transform="translate(101.0,400.0)"
     id="g122">
    <line
       x1="0.0"
       y1="0.0"
       x2="0.0"
       y2="47.5"
       stroke-dasharray="23, 0"
       stroke="#333333"
       stroke-width="3"
       id="line124" />
    <g
       transform="translate(0.0,50.0) rotate(270.0)"
       id="g126">
      <path
         d="M13.0,-7.0 L3.0,0 L13.0,7.0 M0,0z"
         fill="none"
         stroke="#333333"
         stroke-width="3.0"
         id="path128" />
    </g>
  </g>
  <g
     transform="translate(301.0,450.0) rotate(0 100.0 50.0)"
     id="g130">
    <defs
       id="defs132">
      <linearGradient
         id="g7"
         x1="50%"
         y1="-25%"
         x2="50%"
         y2="100%">
        <stop
           stop-color="white"
           offset="0%"
           id="stop135" />
        <stop
           stop-color="#ff6633"
           offset="100%"
           id="stop137" />
      </linearGradient>
    </defs>
    <g
       transform="translate(4.0,4.0)"
       id="g139">
      <polygon
         points="100.0,0 200.0,50.0 100.0,100.0 0,50.0"
         stroke="#A8A8A8"
         stroke-width="0"
         stroke-opacity=".6"
         fill-opacity=".6"
         fill="#A8A8A8"
         id="polygon141" />
    </g>
    <polygon
       points="100.0,0 200.0,50.0 100.0,100.0 0,50.0"
       stroke="#333333"
       stroke-width="2"
       style="fill:url(#g7)"
       id="polygon143" />
    <g
       transform="translate(0.0,47.0)"
       id="g145">
      <text
         x="100.0"
         style="text-anchor: middle"
         y="-3.0"
         id="text147">
        <tspan
           xml:space="preserve"
           font-size="18"
           font-family="Verdana"
           fill="#000000"
           font-weight="bold"
           id="tspan149">Any ligand</tspan>      </text>
      <text
         x="100.0"
         style="text-anchor: middle"
         y="19.2"
         id="text151">
        <tspan
           xml:space="preserve"
           font-size="18"
           font-family="Verdana"
           fill="#000000"
           font-weight="bold"
           id="tspan153">not docked</tspan>      </text>
    </g>
  </g>
  <g
     transform="translate(201.0,500.0)"
     id="g155">
    <line
       x1="0.0"
       y1="0.0"
       x2="97.5"
       y2="0.0"
       stroke-dasharray="23, 0"
       stroke="#333333"
       stroke-width="3"
       id="line157" />
    <g
       transform="translate(100.0,0.0) rotate(180.0)"
       id="g159">
      <path
         d="M13.0,-7.0 L3.0,0 L13.0,7.0 M0,0z"
         fill="none"
         stroke="#333333"
         stroke-width="3.0"
         id="path161" />
    </g>
  </g>
  <g
     transform="translate(601.0,300.0) rotate(0 100.0 50.0)"
     id="g163">
    <defs
       id="defs165">
      <linearGradient
         id="g9"
         x1="50%"
         y1="-25%"
         x2="50%"
         y2="100%">
        <stop
           stop-color="white"
           offset="0%"
           id="stop168" />
        <stop
           stop-color="#339966"
           offset="100%"
           id="stop170" />
      </linearGradient>
    </defs>
    <g
       transform="translate(4.0,4.0)"
       id="g172">
      <path
         d="M190.0,0 Q200.0,0 200.0,10 L200.0,90.0 Q200.0,100.0 190.0,100.0 L10,100.0 Q0,100.0 0,90.0 L0,10 Q0,0 10,0 Z"
         stroke="#A8A8A8"
         stroke-width="0"
         stroke-opacity=".6"
         fill-opacity=".6"
         fill="#A8A8A8"
         id="path174" />
    </g>
    <path
       d="M190.0,0 Q200.0,0 200.0,10 L200.0,90.0 Q200.0,100.0 190.0,100.0 L10,100.0 Q0,100.0 0,90.0 L0,10 Q0,0 10,0 Z"
       stroke="#333333"
       stroke-width="2"
       style="fill:url(#g9)"
       id="path176" />
    <g
       transform="translate(0.0,37.0)"
       id="g178">
      <text
         x="100.0"
         style="text-anchor: middle"
         y="-3.0"
         id="text180">
        <tspan
           xml:space="preserve"
           font-size="18"
           font-family="Verdana"
           fill="#000000"
           font-weight="bold"
           id="tspan182">Build</tspan>      </text>
      <text
         x="100.0"
         style="text-anchor: middle"
         y="19.2"
         id="text184">
        <tspan
           xml:space="preserve"
           font-size="18"
           font-family="Verdana"
           fill="#000000"
           font-weight="bold"
           id="tspan186">grid maps</tspan>      </text>
      <text
         x="100.0"
         style="text-anchor: middle"
         y="41.4"
         id="text188">
        <tspan
           xml:space="preserve"
           font-size="18"
           font-family="Verdana"
           fill="#FFFFFF"
           font-weight="bold"
           id="tspan190">in parallel</tspan>      </text>
    </g>
  </g>
  <g
     transform="translate(701.0,300.0)"
     id="g192">
    <line
       x1="0.0"
       y1="0.0"
       x2="0.0"
       y2="-47.5"
       stroke-dasharray="23, 0"
       stroke="#333333"
       stroke-width="3"
       id="line194" />
    <g
       transform="translate(0.0,-50.0) rotate(450.0)"
       id="g196">
      <path
         d="M13.0,-7.0 L3.0,0 L13.0,7.0 M0,0z"
         fill="none"
         stroke="#333333"
         stroke-width="3.0"
         id="path198" />
    </g>
  </g>
  <g
     transform="translate(601.0,150.0) rotate(0 100.0 50.0)"
     id="g200">
    <defs
       id="defs202">
      <linearGradient
         id="g11"
         x1="50%"
         y1="-25%"
         x2="50%"
         y2="100%">
        <stop
           stop-color="white"
           offset="0%"
           id="stop205" />
        <stop
           stop-color="#339966"
           offset="100%"
           id="stop207" />
      </linearGradient>
    </defs>
    <g
       transform="translate(4.0,4.0)"
       id="g209">
      <path
         d="M190.0,0 Q200.0,0 200.0,10 L200.0,90.0 Q200.0,100.0 190.0,100.0 L10,100.0 Q0,100.0 0,90.0 L0,10 Q0,0 10,0 Z"
         stroke="#A8A8A8"
         stroke-width="0"
         stroke-opacity=".6"
         fill-opacity=".6"
         fill="#A8A8A8"
         id="path211" />
    </g>
    <path
       d="M190.0,0 Q200.0,0 200.0,10 L200.0,90.0 Q200.0,100.0 190.0,100.0 L10,100.0 Q0,100.0 0,90.0 L0,10 Q0,0 10,0 Z"
       stroke="#333333"
       stroke-width="2"
       style="fill:url(#g11)"
       id="path213" />
    <g
       transform="translate(0.0,37.0)"
       id="g215">
      <text
         x="100.0"
         style="text-anchor: middle"
         y="-3.0"
         id="text217">
        <tspan
           xml:space="preserve"
           font-size="18"
           font-family="Verdana"
           fill="#000000"
           font-weight="bold"
           id="tspan219">Run</tspan>      </text>
      <text
         x="100.0"
         style="text-anchor: middle"
         y="19.2"
         id="text221">
        <tspan
           xml:space="preserve"
           font-size="18"
           font-family="Verdana"
           fill="#000000"
           font-weight="bold"
           id="tspan223">Monte Carlo tasks</tspan>      </text>
      <text
         x="100.0"
         style="text-anchor: middle"
         y="41.4"
         id="text225">
        <tspan
           xml:space="preserve"
           font-size="18"
           font-family="Verdana"
           fill="#FFFFFF"
           font-weight="bold"
           id="tspan227">in parallel</tspan>      </text>
    </g>
  </g>
  <g
     transform="translate(301.0,0.0) rotate(0 100.0 50.0)"
     id="g229">
    <defs
       id="defs231">
      <linearGradient
         id="g12"
         x1="50%"
         y1="-25%"
         x2="50%"
         y2="100%">
        <stop
           stop-color="white"
           offset="0%"
           id="stop234" />
        <stop
           stop-color="#339966"
           offset="100%"
           id="stop236" />
      </linearGradient>
    </defs>
    <g
       transform="translate(4.0,4.0)"
       id="g238">
      <path
         d="M190.0,0 Q200.0,0 200.0,10 L200.0,90.0 Q200.0,100.0 190.0,100.0 L10,100.0 Q0,100.0 0,90.0 L0,10 Q0,0 10,0 Z"
         stroke="#A8A8A8"
         stroke-width="0"
         stroke-opacity=".6"
         fill-opacity=".6"
         fill="#A8A8A8"
         id="path240" />
    </g>
    <path
       d="M190.0,0 Q200.0,0 200.0,10 L200.0,90.0 Q200.0,100.0 190.0,100.0 L10,100.0 Q0,100.0 0,90.0 L0,10 Q0,0 10,0 Z"
       stroke="#333333"
       stroke-width="2"
       style="fill:url(#g12)"
       id="path242" />
    <g
       transform="translate(0.0,47.0)"
       id="g244">
      <text
         x="100.0"
         style="text-anchor: middle"
         y="-3.0"
         id="text246">
        <tspan
           xml:space="preserve"
           font-size="18"
           font-family="Verdana"
           fill="#000000"
           font-weight="bold"
           id="tspan248">Output</tspan>      </text>
      <text
         x="100.0"
         style="text-anchor: middle"
         y="19.2"
         id="text250">
        <tspan
           xml:space="preserve"
           font-size="18"
           font-family="Verdana"
           fill="#000000"
           font-weight="bold"
           id="tspan252">conformations</tspan>      </text>
    </g>
  </g>
  <g
     transform="translate(501.0,500.0)"
     id="g254">
    <line
       x1="0.0"
       y1="0.0"
       x2="97.5"
       y2="0.0"
       stroke-dasharray="23, 0"
       stroke="#333333"
       stroke-width="3"
       id="line256" />
    <g
       transform="translate(100.0,0.0) rotate(180.0)"
       id="g258">
      <path
         d="M13.0,-7.0 L3.0,0 L13.0,7.0 M0,0z"
         fill="none"
         stroke="#333333"
         stroke-width="3.0"
         id="path260" />
    </g>
    <g
       transform="translate(44,-8)"
       id="g262">
      <rect
         x="-16.5"
         y="-10"
         width="33"
         height="16"
         id="rect264"
         style="fill:#ffffff" />
      <text
         x="0"
         style="text-anchor:middle"
         y="2"
         id="text266">
        <tspan
           font-size="14px"
           font-weight="bold"
           id="tspan268"
           style="font-size:14px;font-weight:bold;fill:#000000;font-family:Verdana">Yes</tspan>
      </text>
    </g>
  </g>
  <g
     transform="translate(701.0,450.0)"
     id="g270">
    <line
       x1="0.0"
       y1="0.0"
       x2="0.0"
       y2="-47.5"
       stroke-dasharray="23, 0"
       stroke="#333333"
       stroke-width="3"
       id="line272" />
    <g
       transform="translate(0.0,-50.0) rotate(450.0)"
       id="g274">
      <path
         d="M13.0,-7.0 L3.0,0 L13.0,7.0 M0,0z"
         fill="none"
         stroke="#333333"
         stroke-width="3.0"
         id="path276" />
    </g>
  </g>
  <g
     transform="translate(701.0,150.0)"
     id="g278">
    <line
       x1="0.0"
       y1="0.0"
       x2="0.0"
       y2="-47.5"
       stroke-dasharray="23, 0"
       stroke="#333333"
       stroke-width="3"
       id="line280" />
    <g
       transform="translate(0.0,-50.0) rotate(450.0)"
       id="g282">
      <path
         d="M13.0,-7.0 L3.0,0 L13.0,7.0 M0,0z"
         fill="none"
         stroke="#333333"
         stroke-width="3.0"
         id="path284" />
    </g>
  </g>
  <g
     transform="translate(601.0,0.0) rotate(0 100.0 50.0)"
     id="g286">
    <defs
       id="defs288">
      <linearGradient
         id="g16"
         x1="50%"
         y1="-25%"
         x2="50%"
         y2="100%">
        <stop
           stop-color="white"
           offset="0%"
           id="stop291" />
        <stop
           stop-color="#339966"
           offset="100%"
           id="stop293" />
      </linearGradient>
    </defs>
    <g
       transform="translate(4.0,4.0)"
       id="g295">
      <path
         d="M190.0,0 Q200.0,0 200.0,10 L200.0,90.0 Q200.0,100.0 190.0,100.0 L10,100.0 Q0,100.0 0,90.0 L0,10 Q0,0 10,0 Z"
         stroke="#A8A8A8"
         stroke-width="0"
         stroke-opacity=".6"
         fill-opacity=".6"
         fill="#A8A8A8"
         id="path297" />
    </g>
    <path
       d="M190.0,0 Q200.0,0 200.0,10 L200.0,90.0 Q200.0,100.0 190.0,100.0 L10,100.0 Q0,100.0 0,90.0 L0,10 Q0,0 10,0 Z"
       stroke="#333333"
       stroke-width="2"
       style="fill:url(#g16)"
       id="path299" />
    <g
       transform="translate(0.0,47.0)"
       id="g301">
      <text
         x="100.0"
         style="text-anchor: middle"
         y="-3.0"
         id="text303">
        <tspan
           xml:space="preserve"
           font-size="18"
           font-family="Verdana"
           fill="#000000"
           font-weight="bold"
           id="tspan305">Cluster</tspan>      </text>
      <text
         x="100.0"
         style="text-anchor: middle"
         y="19.2"
         id="text307">
        <tspan
           xml:space="preserve"
           font-size="18"
           font-family="Verdana"
           fill="#000000"
           font-weight="bold"
           id="tspan309">results</tspan>      </text>
    </g>
  </g>
  <g
     transform="translate(501.0,50.0)"
     id="g311">
    <line
       x1="2.5"
       y1="-3.061616997868383E-16"
       x2="100.0"
       y2="0.0"
       stroke-dasharray="23, 0"
       stroke="#333333"
       stroke-width="3"
       id="line313" />
    <g
       transform="translate(0.0,0.0) rotate(0.0)"
       id="g315">
      <path
         d="M13.0,-7.0 L3.0,0 L13.0,7.0 M0,0z"
         fill="none"
         stroke="#333333"
         stroke-width="3.0"
         id="path317" />
    </g>
  </g>
  <g
     transform="translate(301.0,500.0)"
     id="g319">
    <path
       d="M-4.0,0.0 L-48.0,0.0 Q-58.0,0.0 -58.0,-10.0 L-58.0,-440.0 Q-58.0,-450.0 -48.0,-450.0 L0.0,-450.0 "
       stroke-dasharray="23, 0"
       fill="none"
       stroke="#333333"
       stroke-width="3"
       id="path321" />
    <g
       transform="translate(0.0,0.0) rotate(180.0)"
       id="g323">
      <path
         d="M13.0,-7.0 L3.0,0 L13.0,7.0 M0,0z"
         fill="none"
         stroke="#333333"
         stroke-width="3.0"
         id="path325" />
    </g>
  </g>
  <g
     transform="translate(1.0,0.0) rotate(0 100.0 50.0)"
     id="g327">
    <defs
       id="defs329">
      <linearGradient
         id="g19"
         x1="50%"
         y1="-25%"
         x2="50%"
         y2="100%">
        <stop
           stop-color="white"
           offset="0%"
           id="stop332" />
        <stop
           stop-color="#ff0000"
           offset="100%"
           id="stop334" />
      </linearGradient>
    </defs>
    <g
       transform="translate(4.0,4.0)"
       id="g336">
      <path
         d="M50.0,0 L150.0,0 Q170.71067811865476,-7.105427357601002E-15 185.35533905932738,14.644660940672615 Q200.0,29.289321881345238 200.0,49.999999999999986 Q200.0,70.71067811865476 185.35533905932738,85.35533905932738 Q170.71067811865476,100.0 150.0,100.0 L50.0,100.0 Q29.289321881345252,100.0 14.64466094067263,85.35533905932738 Q0.0,70.71067811865476 0.0,50.0 Q-7.105427357601002E-15,29.289321881345252 14.644660940672615,14.64466094067263 Q29.289321881345238,0.0 49.99999999999999,0.0 Z"
         stroke="#A8A8A8"
         stroke-width="0"
         stroke-opacity=".6"
         fill-opacity=".6"
         fill="#A8A8A8"
         id="path338" />
    </g>
    <path
       d="M50.0,0 L150.0,0 Q170.71067811865476,-7.105427357601002E-15 185.35533905932738,14.644660940672615 Q200.0,29.289321881345238 200.0,49.999999999999986 Q200.0,70.71067811865476 185.35533905932738,85.35533905932738 Q170.71067811865476,100.0 150.0,100.0 L50.0,100.0 Q29.289321881345252,100.0 14.64466094067263,85.35533905932738 Q0.0,70.71067811865476 0.0,50.0 Q-7.105427357601002E-15,29.289321881345252 14.644660940672615,14.64466094067263 Q29.289321881345238,0.0 49.99999999999999,0.0 Z"
       stroke="#333333"
       stroke-width="2"
       style="fill:url(#g19)"
       id="path340" />
    <g
       transform="translate(0.0,58.0)"
       id="g342">
      <text
         x="100.0"
         style="text-anchor: middle"
         y="-3.0"
         id="text344">
        <tspan
           xml:space="preserve"
           font-size="18"
           font-family="Verdana"
           fill="#000000"
           font-weight="bold"
           id="tspan346">Start</tspan>      </text>
    </g>
  </g>
  <g
     transform="translate(301.0,150.0) rotate(0 100.0 50.0)"
     id="g348">
    <defs
       id="defs350">
      <linearGradient
         id="g20"
         x1="50%"
         y1="-25%"
         x2="50%"
         y2="100%">
        <stop
           stop-color="white"
           offset="0%"
           id="stop353" />
        <stop
           stop-color="#ff0000"
           offset="100%"
           id="stop355" />
      </linearGradient>
    </defs>
    <g
       transform="translate(4.0,4.0)"
       id="g357">
      <path
         d="M50.0,0 L150.0,0 Q170.71067811865476,-7.105427357601002E-15 185.35533905932738,14.644660940672615 Q200.0,29.289321881345238 200.0,49.999999999999986 Q200.0,70.71067811865476 185.35533905932738,85.35533905932738 Q170.71067811865476,100.0 150.0,100.0 L50.0,100.0 Q29.289321881345252,100.0 14.64466094067263,85.35533905932738 Q0.0,70.71067811865476 0.0,50.0 Q-7.105427357601002E-15,29.289321881345252 14.644660940672615,14.64466094067263 Q29.289321881345238,0.0 49.99999999999999,0.0 Z"
         stroke="#A8A8A8"
         stroke-width="0"
         stroke-opacity=".6"
         fill-opacity=".6"
         fill="#A8A8A8"
         id="path359" />
    </g>
    <path
       d="M50.0,0 L150.0,0 Q170.71067811865476,-7.105427357601002E-15 185.35533905932738,14.644660940672615 Q200.0,29.289321881345238 200.0,49.999999999999986 Q200.0,70.71067811865476 185.35533905932738,85.35533905932738 Q170.71067811865476,100.0 150.0,100.0 L50.0,100.0 Q29.289321881345252,100.0 14.64466094067263,85.35533905932738 Q0.0,70.71067811865476 0.0,50.0 Q-7.105427357601002E-15,29.289321881345252 14.644660940672615,14.64466094067263 Q29.289321881345238,0.0 49.99999999999999,0.0 Z"
       stroke="#333333"
       stroke-width="2"
       style="fill:url(#g20)"
       id="path361" />
    <g
       transform="translate(0.0,58.0)"
       id="g363">
      <text
         x="100.0"
         style="text-anchor: middle"
         y="-3.0"
         id="text365">
        <tspan
           xml:space="preserve"
           font-size="18"
           font-family="Verdana"
           fill="#000000"
           font-weight="bold"
           id="tspan367">End</tspan>      </text>
    </g>
  </g>
  <g
     transform="translate(301.0,300.0) rotate(0 100.0 50.0)"
     id="g369">
    <defs
       id="defs371">
      <linearGradient
         id="g21"
         x1="50%"
         y1="-25%"
         x2="50%"
         y2="100%">
        <stop
           stop-color="white"
           offset="0%"
           id="stop374" />
        <stop
           stop-color="#339966"
           offset="100%"
           id="stop376" />
      </linearGradient>
    </defs>
    <g
       transform="translate(4.0,4.0)"
       id="g378">
      <path
         d="M190.0,0 Q200.0,0 200.0,10 L200.0,90.0 Q200.0,100.0 190.0,100.0 L10,100.0 Q0,100.0 0,90.0 L0,10 Q0,0 10,0 Z"
         stroke="#A8A8A8"
         stroke-width="0"
         stroke-opacity=".6"
         fill-opacity=".6"
         fill="#A8A8A8"
         id="path380" />
    </g>
    <path
       d="M190.0,0 Q200.0,0 200.0,10 L200.0,90.0 Q200.0,100.0 190.0,100.0 L10,100.0 Q0,100.0 0,90.0 L0,10 Q0,0 10,0 Z"
       stroke="#333333"
       stroke-width="2"
       style="fill:url(#g21)"
       id="path382" />
    <g
       transform="translate(0.0,47.0)"
       id="g384">
      <text
         x="100.0"
         style="text-anchor: middle"
         y="-3.0"
         id="text386">
        <tspan
           xml:space="preserve"
           font-size="18"
           font-family="Verdana"
           fill="#000000"
           font-weight="bold"
           id="tspan388">Destroy</tspan>      </text>
      <text
         x="100.0"
         style="text-anchor: middle"
         y="19.2"
         id="text390">
        <tspan
           xml:space="preserve"
           font-size="18"
           font-family="Verdana"
           fill="#000000"
           font-weight="bold"
           id="tspan392">thread pool</tspan>      </text>
    </g>
  </g>
  <g
     transform="translate(400.0,450.0)"
     id="g394">
    <line
       x1="0.0"
       y1="0.0"
       x2="0.0"
       y2="-47.5"
       stroke-dasharray="23, 0"
       stroke="#333333"
       stroke-width="3"
       id="line396" />
    <g
       transform="translate(0.0,-50.0) rotate(450.0)"
       id="g398">
      <path
         d="M13.0,-7.0 L3.0,0 L13.0,7.0 M0,0z"
         fill="none"
         stroke="#333333"
         stroke-width="3.0"
         id="path400" />
    </g>
    <g
       transform="translate(18,-18)"
       id="g402">
      <rect
         x="-15.5"
         y="-10"
         width="31"
         height="16"
         id="rect404"
         style="fill:#ffffff" />
      <text
         x="0"
         style="text-anchor:middle"
         y="2"
         id="text406">
        <tspan
           font-size="14px"
           font-weight="bold"
           id="tspan408"
           style="font-size:14px;font-weight:bold;fill:#000000;font-family:Verdana">No</tspan>
      </text>
    </g>
  </g>
  <g
     transform="translate(401.0,250.0)"
     id="g410">
    <line
       x1="0.0"
       y1="2.5"
       x2="0.0"
       y2="50.0"
       stroke-dasharray="23, 0"
       stroke="#333333"
       stroke-width="3"
       id="line412" />
    <g
       transform="translate(0.0,0.0) rotate(90.0)"
       id="g414">
      <path
         d="M13.0,-7.0 L3.0,0 L13.0,7.0 M0,0z"
         fill="none"
         stroke="#333333"
         stroke-width="3.0"
         id="path416" />
    </g>
  </g>
  <g
     transform="translate(0, 569)"
     id="g418" />
</svg>
