<?xml version="1.0" encoding="UTF-8" standalone="no"?>
<svg
   xmlns:dc="http://purl.org/dc/elements/1.1/"
   xmlns:cc="http://creativecommons.org/ns#"
   xmlns:rdf="http://www.w3.org/1999/02/22-rdf-syntax-ns#"
   xmlns:svg="http://www.w3.org/2000/svg"
   xmlns="http://www.w3.org/2000/svg"
   xmlns:sodipodi="http://sodipodi.sourceforge.net/DTD/sodipodi-0.dtd"
   xmlns:inkscape="http://www.inkscape.org/namespaces/inkscape"
   width="820"
   height="605"
   id="svg3681"
   version="1.1"
   inkscape:version="0.48.3.1 r9886"
   sodipodi:docname="Flowchart.svg">
  <metadata
     id="metadata4375">
    <rdf:RDF>
      <cc:Work
         rdf:about="">
        <dc:format>image/svg+xml</dc:format>
        <dc:type
           rdf:resource="http://purl.org/dc/dcmitype/StillImage" />
        <dc:title></dc:title>
      </cc:Work>
    </rdf:RDF>
  </metadata>
  <defs
     id="defs4373" />
  <sodipodi:namedview
     pagecolor="#ffffff"
     bordercolor="#666666"
     borderopacity="1"
     objecttolerance="10"
     gridtolerance="10"
     guidetolerance="10"
     inkscape:pageopacity="0"
     inkscape:pageshadow="2"
     inkscape:window-width="1920"
     inkscape:window-height="1018"
     id="namedview4371"
     showgrid="false"
     inkscape:zoom="1.3867769"
     inkscape:cx="410"
     inkscape:cy="215.96841"
     inkscape:window-x="-8"
     inkscape:window-y="-8"
     inkscape:window-maximized="1"
     inkscape:current-layer="svg3681" />
  <rect
     stroke="#000000"
     stroke-width="0"
     fill="#ffffff"
     x="0"
     y="0"
     width="819"
     height="569"
     id="rect3683" />
  <g
     transform="translate(101.0,100.0)"
     id="g3685">
    <line
       x1="0.0"
       y1="0.0"
       x2="0.0"
       y2="47.5"
       stroke-dasharray="23, 0"
       stroke="#333333"
       stroke-width="3"
       id="line3687" />
    <g
       transform="translate(0.0,50.0) rotate(270.0)"
       id="g3689">
      <path
         d="M13.0,-7.0 L3.0,0 L13.0,7.0 M0,0z"
         fill="none"
         stroke="#333333"
         stroke-width="3.0"
         id="path3691" />
    </g>
  </g>
  <g
     transform="translate(1.0,150.0) rotate(0 100.0 50.0)"
     id="g3693">
    <defs
       id="defs3695">
      <linearGradient
         id="g1"
         x1="50%"
         y1="-25%"
         x2="50%"
         y2="100%">
        <stop
           stop-color="white"
           offset="0%"
           id="stop3698" />
        <stop
           stop-color="#339966"
           offset="100%"
           id="stop3700" />
      </linearGradient>
    </defs>
    <g
       transform="translate(4.0,4.0)"
       id="g3702">
      <path
         d="M190.0,0 Q200.0,0 200.0,10 L200.0,90.0 Q200.0,100.0 190.0,100.0 L10,100.0 Q0,100.0 0,90.0 L0,10 Q0,0 10,0 Z"
         stroke="#A8A8A8"
         stroke-width="0"
         stroke-opacity=".6"
         fill-opacity=".6"
         fill="#A8A8A8"
         id="path3704" />
    </g>
    <path
       d="M190.0,0 Q200.0,0 200.0,10 L200.0,90.0 Q200.0,100.0 190.0,100.0 L10,100.0 Q0,100.0 0,90.0 L0,10 Q0,0 10,0 Z"
       stroke="#333333"
       stroke-width="2"
       style="fill:url(#g1)"
       id="path3706" />
    <g
       transform="translate(0.0,37.0)"
       id="g3708">
      <text
         x="100.0"
         style="text-anchor: middle"
         y="-3.0"
         id="text3710">
        <tspan
           xml:space="preserve"
           font-size="18"
           font-family="Verdana"
           fill="#000000"
           font-weight="bold"
           id="tspan3712">Precalculate</tspan>      </text>
      <text
         x="100.0"
         style="text-anchor: middle"
         y="19.2"
         id="text3714">
        <tspan
           xml:space="preserve"
           font-size="18"
           font-family="Verdana"
           fill="#000000"
           font-weight="bold"
           id="tspan3716">scoring function</tspan>      </text>
      <text
         x="100.0"
         style="text-anchor: middle"
         y="41.4"
         id="text3718">
        <tspan
           xml:space="preserve"
           font-size="18"
           font-family="Verdana"
           fill="#000000"
           font-weight="bold"
           id="tspan3720">in parallel</tspan>      </text>
    </g>
  </g>
  <g
     transform="translate(1.0,300.0) rotate(0 100.0 50.0)"
     id="g3722">
    <defs
       id="defs3724">
      <linearGradient
         id="g2"
         x1="50%"
         y1="-25%"
         x2="50%"
         y2="100%">
        <stop
           stop-color="white"
           offset="0%"
           id="stop3727" />
        <stop
           stop-color="#339966"
           offset="100%"
           id="stop3729" />
      </linearGradient>
    </defs>
    <g
       transform="translate(4.0,4.0)"
       id="g3731">
      <path
         d="M190.0,0 Q200.0,0 200.0,10 L200.0,90.0 Q200.0,100.0 190.0,100.0 L10,100.0 Q0,100.0 0,90.0 L0,10 Q0,0 10,0 Z"
         stroke="#A8A8A8"
         stroke-width="0"
         stroke-opacity=".6"
         fill-opacity=".6"
         fill="#A8A8A8"
         id="path3733" />
    </g>
    <path
       d="M190.0,0 Q200.0,0 200.0,10 L200.0,90.0 Q200.0,100.0 190.0,100.0 L10,100.0 Q0,100.0 0,90.0 L0,10 Q0,0 10,0 Z"
       stroke="#333333"
       stroke-width="2"
       style="fill:url(#g2)"
       id="path3735" />
    <g
       transform="translate(0.0,47.0)"
       id="g3737">
      <text
         x="100.0"
         style="text-anchor: middle"
         y="-3.0"
         id="text3739">
        <tspan
           xml:space="preserve"
           font-size="18"
           font-family="Verdana"
           fill="#000000"
           font-weight="bold"
           id="tspan3741">Parse</tspan>      </text>
      <text
         x="100.0"
         style="text-anchor: middle"
         y="19.2"
         id="text3743">
        <tspan
           xml:space="preserve"
           font-size="18"
           font-family="Verdana"
           fill="#000000"
           font-weight="bold"
           id="tspan3745">receptor</tspan>      </text>
    </g>
  </g>
  <g
     transform="translate(1.0,450.0) rotate(0 100.0 50.0)"
     id="g3747">
    <defs
       id="defs3749">
      <linearGradient
         id="g3"
         x1="50%"
         y1="-25%"
         x2="50%"
         y2="100%">
        <stop
           stop-color="white"
           offset="0%"
           id="stop3752" />
        <stop
           stop-color="#339966"
           offset="100%"
           id="stop3754" />
      </linearGradient>
    </defs>
    <g
       transform="translate(4.0,4.0)"
       id="g3756">
      <path
         d="M190.0,0 Q200.0,0 200.0,10 L200.0,90.0 Q200.0,100.0 190.0,100.0 L10,100.0 Q0,100.0 0,90.0 L0,10 Q0,0 10,0 Z"
         stroke="#A8A8A8"
         stroke-width="0"
         stroke-opacity=".6"
         fill-opacity=".6"
         fill="#A8A8A8"
         id="path3758" />
    </g>
    <path
       d="M190.0,0 Q200.0,0 200.0,10 L200.0,90.0 Q200.0,100.0 190.0,100.0 L10,100.0 Q0,100.0 0,90.0 L0,10 Q0,0 10,0 Z"
       stroke="#333333"
       stroke-width="2"
       style="fill:url(#g3)"
       id="path3760" />
    <g
       transform="translate(0.0,47.0)"
       id="g3762">
      <text
         x="100.0"
         style="text-anchor: middle"
         y="-3.0"
         id="text3764">
        <tspan
           xml:space="preserve"
           font-size="18"
           font-family="Verdana"
           fill="#000000"
           font-weight="bold"
           id="tspan3766">Create</tspan>      </text>
      <text
         x="100.0"
         style="text-anchor: middle"
         y="19.2"
         id="text3768">
        <tspan
           xml:space="preserve"
           font-size="18"
           font-family="Verdana"
           fill="#000000"
           font-weight="bold"
           id="tspan3770">thread pool</tspan>      </text>
    </g>
  </g>
  <g
     transform="translate(601.0,450.0) rotate(0 100.0 50.0)"
     id="g3772">
    <defs
       id="defs3774">
      <linearGradient
         id="g4"
         x1="50%"
         y1="-25%"
         x2="50%"
         y2="100%">
        <stop
           stop-color="white"
           offset="0%"
           id="stop3777" />
        <stop
           stop-color="#339966"
           offset="100%"
           id="stop3779" />
      </linearGradient>
    </defs>
    <g
       transform="translate(4.0,4.0)"
       id="g3781">
      <path
         d="M190.0,0 Q200.0,0 200.0,10 L200.0,90.0 Q200.0,100.0 190.0,100.0 L10,100.0 Q0,100.0 0,90.0 L0,10 Q0,0 10,0 Z"
         stroke="#A8A8A8"
         stroke-width="0"
         stroke-opacity=".6"
         fill-opacity=".6"
         fill="#A8A8A8"
         id="path3783" />
    </g>
    <path
       d="M190.0,0 Q200.0,0 200.0,10 L200.0,90.0 Q200.0,100.0 190.0,100.0 L10,100.0 Q0,100.0 0,90.0 L0,10 Q0,0 10,0 Z"
       stroke="#333333"
       stroke-width="2"
       style="fill:url(#g4)"
       id="path3785" />
    <g
       transform="translate(0.0,58.0)"
       id="g3787">
      <text
         x="100.0"
         style="text-anchor: middle"
         y="-3.0"
         id="text3789">
        <tspan
           xml:space="preserve"
           font-size="18"
           font-family="Verdana"
           fill="#000000"
           font-weight="bold"
           id="tspan3791">Parse ligand</tspan>      </text>
    </g>
  </g>
  <g
     transform="translate(101.0,250.0)"
     id="g3793">
    <line
       x1="0.0"
       y1="0.0"
       x2="0.0"
       y2="47.5"
       stroke-dasharray="23, 0"
       stroke="#333333"
       stroke-width="3"
       id="line3795" />
    <g
       transform="translate(0.0,50.0) rotate(270.0)"
       id="g3797">
      <path
         d="M13.0,-7.0 L3.0,0 L13.0,7.0 M0,0z"
         fill="none"
         stroke="#333333"
         stroke-width="3.0"
         id="path3799" />
    </g>
  </g>
  <g
     transform="translate(101.0,400.0)"
     id="g3801">
    <line
       x1="0.0"
       y1="0.0"
       x2="0.0"
       y2="47.5"
       stroke-dasharray="23, 0"
       stroke="#333333"
       stroke-width="3"
       id="line3803" />
    <g
       transform="translate(0.0,50.0) rotate(270.0)"
       id="g3805">
      <path
         d="M13.0,-7.0 L3.0,0 L13.0,7.0 M0,0z"
         fill="none"
         stroke="#333333"
         stroke-width="3.0"
         id="path3807" />
    </g>
  </g>
  <g
     transform="translate(301.0,450.0) rotate(0 100.0 50.0)"
     id="g3809">
    <defs
       id="defs3811">
      <linearGradient
         id="g7"
         x1="50%"
         y1="-25%"
         x2="50%"
         y2="100%">
        <stop
           stop-color="white"
           offset="0%"
           id="stop3814" />
        <stop
           stop-color="#ff6633"
           offset="100%"
           id="stop3816" />
      </linearGradient>
    </defs>
    <g
       transform="translate(4.0,4.0)"
       id="g3818">
      <polygon
         points="100.0,0 200.0,50.0 100.0,100.0 0,50.0"
         stroke="#A8A8A8"
         stroke-width="0"
         stroke-opacity=".6"
         fill-opacity=".6"
         fill="#A8A8A8"
         id="polygon3820" />
    </g>
    <polygon
       points="100.0,0 200.0,50.0 100.0,100.0 0,50.0"
       stroke="#333333"
       stroke-width="2"
       style="fill:url(#g7)"
       id="polygon3822" />
    <g
       transform="translate(0.0,47.0)"
       id="g3824">
      <text
         x="100.0"
         style="text-anchor: middle"
         y="-3.0"
         id="text3826">
        <tspan
           xml:space="preserve"
           font-size="18"
           font-family="Verdana"
           fill="#000000"
           font-weight="bold"
           id="tspan3828">Any ligand</tspan>      </text>
      <text
         x="100.0"
         style="text-anchor: middle"
         y="19.2"
         id="text3830">
        <tspan
           xml:space="preserve"
           font-size="18"
           font-family="Verdana"
           fill="#000000"
           font-weight="bold"
           id="tspan3832">not docked</tspan>      </text>
    </g>
  </g>
  <g
     transform="translate(201.0,500.0)"
     id="g3834">
    <line
       x1="0.0"
       y1="0.0"
       x2="97.5"
       y2="0.0"
       stroke-dasharray="23, 0"
       stroke="#333333"
       stroke-width="3"
       id="line3836" />
    <g
       transform="translate(100.0,0.0) rotate(180.0)"
       id="g3838">
      <path
         d="M13.0,-7.0 L3.0,0 L13.0,7.0 M0,0z"
         fill="none"
         stroke="#333333"
         stroke-width="3.0"
         id="path3840" />
    </g>
  </g>
  <g
     transform="translate(601.0,300.0) rotate(0 100.0 50.0)"
     id="g3842">
    <defs
       id="defs3844">
      <linearGradient
         id="g9"
         x1="50%"
         y1="-25%"
         x2="50%"
         y2="100%">
        <stop
           stop-color="white"
           offset="0%"
           id="stop3847" />
        <stop
           stop-color="#339966"
           offset="100%"
           id="stop3849" />
      </linearGradient>
    </defs>
    <g
       transform="translate(4.0,4.0)"
       id="g3851">
      <path
         d="M190.0,0 Q200.0,0 200.0,10 L200.0,90.0 Q200.0,100.0 190.0,100.0 L10,100.0 Q0,100.0 0,90.0 L0,10 Q0,0 10,0 Z"
         stroke="#A8A8A8"
         stroke-width="0"
         stroke-opacity=".6"
         fill-opacity=".6"
         fill="#A8A8A8"
         id="path3853" />
    </g>
    <path
       d="M190.0,0 Q200.0,0 200.0,10 L200.0,90.0 Q200.0,100.0 190.0,100.0 L10,100.0 Q0,100.0 0,90.0 L0,10 Q0,0 10,0 Z"
       stroke="#333333"
       stroke-width="2"
       style="fill:url(#g9)"
       id="path3855" />
    <g
       transform="translate(0.0,37.0)"
       id="g3857">
      <text
         x="100.0"
         style="text-anchor: middle"
         y="-3.0"
         id="text3859">
        <tspan
           xml:space="preserve"
           font-size="18"
           font-family="Verdana"
           fill="#000000"
           font-weight="bold"
           id="tspan3861">Build</tspan>      </text>
      <text
         x="100.0"
         style="text-anchor: middle"
         y="19.2"
         id="text3863">
        <tspan
           xml:space="preserve"
           font-size="18"
           font-family="Verdana"
           fill="#000000"
           font-weight="bold"
           id="tspan3865">grid maps</tspan>      </text>
      <text
         x="100.0"
         style="text-anchor: middle"
         y="41.4"
         id="text3867">
        <tspan
           xml:space="preserve"
           font-size="18"
           font-family="Verdana"
           fill="#000000"
           font-weight="bold"
           id="tspan3869">in parallel</tspan>      </text>
    </g>
  </g>
  <g
     transform="translate(701.0,300.0)"
     id="g3871">
    <line
       x1="0.0"
       y1="0.0"
       x2="0.0"
       y2="-47.5"
       stroke-dasharray="23, 0"
       stroke="#333333"
       stroke-width="3"
       id="line3873" />
    <g
       transform="translate(0.0,-50.0) rotate(450.0)"
       id="g3875">
      <path
         d="M13.0,-7.0 L3.0,0 L13.0,7.0 M0,0z"
         fill="none"
         stroke="#333333"
         stroke-width="3.0"
         id="path3877" />
    </g>
  </g>
  <g
     transform="translate(601.0,150.0) rotate(0 100.0 50.0)"
     id="g3879">
    <defs
       id="defs3881">
      <linearGradient
         id="g11"
         x1="50%"
         y1="-25%"
         x2="50%"
         y2="100%">
        <stop
           stop-color="white"
           offset="0%"
           id="stop3884" />
        <stop
           stop-color="#339966"
           offset="100%"
           id="stop3886" />
      </linearGradient>
    </defs>
    <g
       transform="translate(4.0,4.0)"
       id="g3888">
      <path
         d="M190.0,0 Q200.0,0 200.0,10 L200.0,90.0 Q200.0,100.0 190.0,100.0 L10,100.0 Q0,100.0 0,90.0 L0,10 Q0,0 10,0 Z"
         stroke="#A8A8A8"
         stroke-width="0"
         stroke-opacity=".6"
         fill-opacity=".6"
         fill="#A8A8A8"
         id="path3890" />
    </g>
    <path
       d="M190.0,0 Q200.0,0 200.0,10 L200.0,90.0 Q200.0,100.0 190.0,100.0 L10,100.0 Q0,100.0 0,90.0 L0,10 Q0,0 10,0 Z"
       stroke="#333333"
       stroke-width="2"
       style="fill:url(#g11)"
       id="path3892" />
    <g
       transform="translate(0.0,37.0)"
       id="g3894">
      <text
         x="100.0"
         style="text-anchor: middle"
         y="-3.0"
         id="text3896">
        <tspan
           xml:space="preserve"
           font-size="18"
           font-family="Verdana"
           fill="#000000"
           font-weight="bold"
           id="tspan3898">Run</tspan>      </text>
      <text
         x="100.0"
         style="text-anchor: middle"
         y="19.2"
         id="text3900">
        <tspan
           xml:space="preserve"
           font-size="18"
           font-family="Verdana"
           fill="#000000"
           font-weight="bold"
           id="tspan3902">Monte Carlo tasks</tspan>      </text>
      <text
         x="100.0"
         style="text-anchor: middle"
         y="41.4"
         id="text3904">
        <tspan
           xml:space="preserve"
           font-size="18"
           font-family="Verdana"
           fill="#000000"
           font-weight="bold"
           id="tspan3906">in parallel</tspan>      </text>
    </g>
  </g>
  <g
     transform="translate(301.0,0.0) rotate(0 100.0 50.0)"
     id="g3908">
    <defs
       id="defs3910">
      <linearGradient
         id="g12"
         x1="50%"
         y1="-25%"
         x2="50%"
         y2="100%">
        <stop
           stop-color="white"
           offset="0%"
           id="stop3913" />
        <stop
           stop-color="#339966"
           offset="100%"
           id="stop3915" />
      </linearGradient>
    </defs>
    <g
       transform="translate(4.0,4.0)"
       id="g3917">
      <path
         d="M190.0,0 Q200.0,0 200.0,10 L200.0,90.0 Q200.0,100.0 190.0,100.0 L10,100.0 Q0,100.0 0,90.0 L0,10 Q0,0 10,0 Z"
         stroke="#A8A8A8"
         stroke-width="0"
         stroke-opacity=".6"
         fill-opacity=".6"
         fill="#A8A8A8"
         id="path3919" />
    </g>
    <path
       d="M190.0,0 Q200.0,0 200.0,10 L200.0,90.0 Q200.0,100.0 190.0,100.0 L10,100.0 Q0,100.0 0,90.0 L0,10 Q0,0 10,0 Z"
       stroke="#333333"
       stroke-width="2"
       style="fill:url(#g12)"
       id="path3921" />
    <g
       transform="translate(0.0,47.0)"
       id="g3923">
      <text
         x="100.0"
         style="text-anchor: middle"
         y="-3.0"
         id="text3925">
        <tspan
           xml:space="preserve"
           font-size="18"
           font-family="Verdana"
           fill="#000000"
           font-weight="bold"
           id="tspan3927">Output</tspan>      </text>
      <text
         x="100.0"
         style="text-anchor: middle"
         y="19.2"
         id="text3929">
        <tspan
           xml:space="preserve"
           font-size="18"
           font-family="Verdana"
           fill="#000000"
           font-weight="bold"
           id="tspan3931">conformations</tspan>      </text>
    </g>
  </g>
  <g
     transform="translate(501.0,500.0)"
     id="g3933">
    <line
       x1="0.0"
       y1="0.0"
       x2="97.5"
       y2="0.0"
       stroke-dasharray="23, 0"
       stroke="#333333"
       stroke-width="3"
       id="line3935" />
    <g
       transform="translate(100.0,0.0) rotate(180.0)"
       id="g3937">
      <path
         d="M13.0,-7.0 L3.0,0 L13.0,7.0 M0,0z"
         fill="none"
         stroke="#333333"
         stroke-width="3.0"
         id="path3939" />
    </g>
    <g
       transform="translate(40.0,0.0)"
       id="g3941">
      <rect
         fill="#ffffff"
         x="-16.5"
         y="-10.0"
         width="33.0"
         height="16"
         id="rect3943" />
      <text
         x="0.0"
         style="text-anchor: middle"
         y="2.0"
         id="text3945">
        <tspan
           font-size="14px"
           font-family="Verdana"
           fill="#000000"
           font-weight="bold"
           id="tspan3947">Yes</tspan>
      </text>
    </g>
  </g>
  <g
     transform="translate(701.0,450.0)"
     id="g3949">
    <line
       x1="0.0"
       y1="0.0"
       x2="0.0"
       y2="-47.5"
       stroke-dasharray="23, 0"
       stroke="#333333"
       stroke-width="3"
       id="line3951" />
    <g
       transform="translate(0.0,-50.0) rotate(450.0)"
       id="g3953">
      <path
         d="M13.0,-7.0 L3.0,0 L13.0,7.0 M0,0z"
         fill="none"
         stroke="#333333"
         stroke-width="3.0"
         id="path3955" />
    </g>
  </g>
  <g
     transform="translate(701.0,150.0)"
     id="g3957">
    <line
       x1="0.0"
       y1="0.0"
       x2="0.0"
       y2="-47.5"
       stroke-dasharray="23, 0"
       stroke="#333333"
       stroke-width="3"
       id="line3959" />
    <g
       transform="translate(0.0,-50.0) rotate(450.0)"
       id="g3961">
      <path
         d="M13.0,-7.0 L3.0,0 L13.0,7.0 M0,0z"
         fill="none"
         stroke="#333333"
         stroke-width="3.0"
         id="path3963" />
    </g>
  </g>
  <g
     transform="translate(601.0,0.0) rotate(0 100.0 50.0)"
     id="g3965">
    <defs
       id="defs3967">
      <linearGradient
         id="g16"
         x1="50%"
         y1="-25%"
         x2="50%"
         y2="100%">
        <stop
           stop-color="white"
           offset="0%"
           id="stop3970" />
        <stop
           stop-color="#339966"
           offset="100%"
           id="stop3972" />
      </linearGradient>
    </defs>
    <g
       transform="translate(4.0,4.0)"
       id="g3974">
      <path
         d="M190.0,0 Q200.0,0 200.0,10 L200.0,90.0 Q200.0,100.0 190.0,100.0 L10,100.0 Q0,100.0 0,90.0 L0,10 Q0,0 10,0 Z"
         stroke="#A8A8A8"
         stroke-width="0"
         stroke-opacity=".6"
         fill-opacity=".6"
         fill="#A8A8A8"
         id="path3976" />
    </g>
    <path
       d="M190.0,0 Q200.0,0 200.0,10 L200.0,90.0 Q200.0,100.0 190.0,100.0 L10,100.0 Q0,100.0 0,90.0 L0,10 Q0,0 10,0 Z"
       stroke="#333333"
       stroke-width="2"
       style="fill:url(#g16)"
       id="path3978" />
    <g
       transform="translate(0.0,47.0)"
       id="g3980">
      <text
         x="100.0"
         style="text-anchor: middle"
         y="-3.0"
         id="text3982">
        <tspan
           xml:space="preserve"
           font-size="18"
           font-family="Verdana"
           fill="#000000"
           font-weight="bold"
           id="tspan3984">Cluster</tspan>      </text>
      <text
         x="100.0"
         style="text-anchor: middle"
         y="19.2"
         id="text3986">
        <tspan
           xml:space="preserve"
           font-size="18"
           font-family="Verdana"
           fill="#000000"
           font-weight="bold"
           id="tspan3988">results</tspan>      </text>
    </g>
  </g>
  <g
     transform="translate(501.0,50.0)"
     id="g3990">
    <line
       x1="2.5"
       y1="-3.061616997868383E-16"
       x2="100.0"
       y2="0.0"
       stroke-dasharray="23, 0"
       stroke="#333333"
       stroke-width="3"
       id="line3992" />
    <g
       transform="translate(0.0,0.0) rotate(0.0)"
       id="g3994">
      <path
         d="M13.0,-7.0 L3.0,0 L13.0,7.0 M0,0z"
         fill="none"
         stroke="#333333"
         stroke-width="3.0"
         id="path3996" />
    </g>
  </g>
  <g
     transform="translate(301.0,500.0)"
     id="g3998">
    <path
       d="M-4.0,0.0 L-48.0,0.0 Q-58.0,0.0 -58.0,-10.0 L-58.0,-440.0 Q-58.0,-450.0 -48.0,-450.0 L0.0,-450.0 "
       stroke-dasharray="23, 0"
       fill="none"
       stroke="#333333"
       stroke-width="3"
       id="path4000" />
    <g
       transform="translate(0.0,0.0) rotate(180.0)"
       id="g4002">
      <path
         d="M13.0,-7.0 L3.0,0 L13.0,7.0 M0,0z"
         fill="none"
         stroke="#333333"
         stroke-width="3.0"
         id="path4004" />
    </g>
  </g>
  <g
     transform="translate(1.0,0.0) rotate(0 100.0 50.0)"
     id="g4006">
    <defs
       id="defs4008">
      <linearGradient
         id="g19"
         x1="50%"
         y1="-25%"
         x2="50%"
         y2="100%">
        <stop
           stop-color="white"
           offset="0%"
           id="stop4011" />
        <stop
           stop-color="#ff0000"
           offset="100%"
           id="stop4013" />
      </linearGradient>
    </defs>
    <g
       transform="translate(4.0,4.0)"
       id="g4015">
      <path
         d="M50.0,0 L150.0,0 Q170.71067811865476,-7.105427357601002E-15 185.35533905932738,14.644660940672615 Q200.0,29.289321881345238 200.0,49.999999999999986 Q200.0,70.71067811865476 185.35533905932738,85.35533905932738 Q170.71067811865476,100.0 150.0,100.0 L50.0,100.0 Q29.289321881345252,100.0 14.64466094067263,85.35533905932738 Q0.0,70.71067811865476 0.0,50.0 Q-7.105427357601002E-15,29.289321881345252 14.644660940672615,14.64466094067263 Q29.289321881345238,0.0 49.99999999999999,0.0 Z"
         stroke="#A8A8A8"
         stroke-width="0"
         stroke-opacity=".6"
         fill-opacity=".6"
         fill="#A8A8A8"
         id="path4017" />
    </g>
    <path
       d="M50.0,0 L150.0,0 Q170.71067811865476,-7.105427357601002E-15 185.35533905932738,14.644660940672615 Q200.0,29.289321881345238 200.0,49.999999999999986 Q200.0,70.71067811865476 185.35533905932738,85.35533905932738 Q170.71067811865476,100.0 150.0,100.0 L50.0,100.0 Q29.289321881345252,100.0 14.64466094067263,85.35533905932738 Q0.0,70.71067811865476 0.0,50.0 Q-7.105427357601002E-15,29.289321881345252 14.644660940672615,14.64466094067263 Q29.289321881345238,0.0 49.99999999999999,0.0 Z"
       stroke="#333333"
       stroke-width="2"
       style="fill:url(#g19)"
       id="path4019" />
    <g
       transform="translate(0.0,58.0)"
       id="g4021">
      <text
         x="100.0"
         style="text-anchor: middle"
         y="-3.0"
         id="text4023">
        <tspan
           xml:space="preserve"
           font-size="18"
           font-family="Verdana"
           fill="#000000"
           font-weight="bold"
           id="tspan4025">Start</tspan>      </text>
    </g>
  </g>
  <g
     transform="translate(301.0,150.0) rotate(0 100.0 50.0)"
     id="g4027">
    <defs
       id="defs4029">
      <linearGradient
         id="g20"
         x1="50%"
         y1="-25%"
         x2="50%"
         y2="100%">
        <stop
           stop-color="white"
           offset="0%"
           id="stop4032" />
        <stop
           stop-color="#ff0000"
           offset="100%"
           id="stop4034" />
      </linearGradient>
    </defs>
    <g
       transform="translate(4.0,4.0)"
       id="g4036">
      <path
         d="M50.0,0 L150.0,0 Q170.71067811865476,-7.105427357601002E-15 185.35533905932738,14.644660940672615 Q200.0,29.289321881345238 200.0,49.999999999999986 Q200.0,70.71067811865476 185.35533905932738,85.35533905932738 Q170.71067811865476,100.0 150.0,100.0 L50.0,100.0 Q29.289321881345252,100.0 14.64466094067263,85.35533905932738 Q0.0,70.71067811865476 0.0,50.0 Q-7.105427357601002E-15,29.289321881345252 14.644660940672615,14.64466094067263 Q29.289321881345238,0.0 49.99999999999999,0.0 Z"
         stroke="#A8A8A8"
         stroke-width="0"
         stroke-opacity=".6"
         fill-opacity=".6"
         fill="#A8A8A8"
         id="path4038" />
    </g>
    <path
       d="M50.0,0 L150.0,0 Q170.71067811865476,-7.105427357601002E-15 185.35533905932738,14.644660940672615 Q200.0,29.289321881345238 200.0,49.999999999999986 Q200.0,70.71067811865476 185.35533905932738,85.35533905932738 Q170.71067811865476,100.0 150.0,100.0 L50.0,100.0 Q29.289321881345252,100.0 14.64466094067263,85.35533905932738 Q0.0,70.71067811865476 0.0,50.0 Q-7.105427357601002E-15,29.289321881345252 14.644660940672615,14.64466094067263 Q29.289321881345238,0.0 49.99999999999999,0.0 Z"
       stroke="#333333"
       stroke-width="2"
       style="fill:url(#g20)"
       id="path4040" />
    <g
       transform="translate(0.0,58.0)"
       id="g4042">
      <text
         x="100.0"
         style="text-anchor: middle"
         y="-3.0"
         id="text4044">
        <tspan
           xml:space="preserve"
           font-size="18"
           font-family="Verdana"
           fill="#000000"
           font-weight="bold"
           id="tspan4046">End</tspan>      </text>
    </g>
  </g>
  <g
     transform="translate(301.0,300.0) rotate(0 100.0 50.0)"
     id="g4048">
    <defs
       id="defs4050">
      <linearGradient
         id="g21"
         x1="50%"
         y1="-25%"
         x2="50%"
         y2="100%">
        <stop
           stop-color="white"
           offset="0%"
           id="stop4053" />
        <stop
           stop-color="#339966"
           offset="100%"
           id="stop4055" />
      </linearGradient>
    </defs>
    <g
       transform="translate(4.0,4.0)"
       id="g4057">
      <path
         d="M190.0,0 Q200.0,0 200.0,10 L200.0,90.0 Q200.0,100.0 190.0,100.0 L10,100.0 Q0,100.0 0,90.0 L0,10 Q0,0 10,0 Z"
         stroke="#A8A8A8"
         stroke-width="0"
         stroke-opacity=".6"
         fill-opacity=".6"
         fill="#A8A8A8"
         id="path4059" />
    </g>
    <path
       d="M190.0,0 Q200.0,0 200.0,10 L200.0,90.0 Q200.0,100.0 190.0,100.0 L10,100.0 Q0,100.0 0,90.0 L0,10 Q0,0 10,0 Z"
       stroke="#333333"
       stroke-width="2"
       style="fill:url(#g21)"
       id="path4061" />
    <g
       transform="translate(0.0,47.0)"
       id="g4063">
      <text
         x="100.0"
         style="text-anchor: middle"
         y="-3.0"
         id="text4065">
        <tspan
           xml:space="preserve"
           font-size="18"
           font-family="Verdana"
           fill="#000000"
           font-weight="bold"
           id="tspan4067">Destroy</tspan>      </text>
      <text
         x="100.0"
         style="text-anchor: middle"
         y="19.2"
         id="text4069">
        <tspan
           xml:space="preserve"
           font-size="18"
           font-family="Verdana"
           fill="#000000"
           font-weight="bold"
           id="tspan4071">thread pool</tspan>      </text>
    </g>
  </g>
  <g
     transform="translate(400.0,450.0)"
     id="g4073">
    <line
       x1="0.0"
       y1="0.0"
       x2="0.0"
       y2="-47.5"
       stroke-dasharray="23, 0"
       stroke="#333333"
       stroke-width="3"
       id="line4075" />
    <g
       transform="translate(0.0,-50.0) rotate(450.0)"
       id="g4077">
      <path
         d="M13.0,-7.0 L3.0,0 L13.0,7.0 M0,0z"
         fill="none"
         stroke="#333333"
         stroke-width="3.0"
         id="path4079" />
    </g>
    <g
       transform="translate(10.0,-30.0)"
       id="g4081">
      <rect
         fill="#ffffff"
         x="-15.5"
         y="-10.0"
         width="31.0"
         height="16"
         id="rect4083" />
      <text
         x="0.0"
         style="text-anchor: middle"
         y="2.0"
         id="text4085">
        <tspan
           font-size="14px"
           font-family="Verdana"
           fill="#000000"
           font-weight="bold"
           id="tspan4087">No</tspan>
      </text>
    </g>
  </g>
  <g
     transform="translate(401.0,250.0)"
     id="g4089">
    <line
       x1="0.0"
       y1="2.5"
       x2="0.0"
       y2="50.0"
       stroke-dasharray="23, 0"
       stroke="#333333"
       stroke-width="3"
       id="line4091" />
    <g
       transform="translate(0.0,0.0) rotate(90.0)"
       id="g4093">
      <path
         d="M13.0,-7.0 L3.0,0 L13.0,7.0 M0,0z"
         fill="none"
         stroke="#333333"
         stroke-width="3.0"
         id="path4095" />
    </g>
  </g>
</svg>
