<?xml version="1.0" encoding="UTF-8" standalone="no"?>
<svg
   xmlns:dc="http://purl.org/dc/elements/1.1/"
   xmlns:cc="http://creativecommons.org/ns#"
   xmlns:rdf="http://www.w3.org/1999/02/22-rdf-syntax-ns#"
   xmlns:svg="http://www.w3.org/2000/svg"
   xmlns="http://www.w3.org/2000/svg"
   xmlns:sodipodi="http://sodipodi.sourceforge.net/DTD/sodipodi-0.dtd"
   xmlns:inkscape="http://www.inkscape.org/namespaces/inkscape"
   width="820"
   height="555"
   id="svg2"
   version="1.1"
   inkscape:version="0.48.3.1 r9886"
   sodipodi:docname="Flowchart.svg">
  <metadata
     id="metadata712">
    <rdf:RDF>
      <cc:Work
         rdf:about="">
        <dc:format>image/svg+xml</dc:format>
        <dc:type
           rdf:resource="http://purl.org/dc/dcmitype/StillImage" />
      </cc:Work>
    </rdf:RDF>
  </metadata>
  <defs
     id="defs710" />
  <sodipodi:namedview
     pagecolor="#ffffff"
     bordercolor="#666666"
     borderopacity="1"
     objecttolerance="10"
     gridtolerance="10"
     guidetolerance="10"
     inkscape:pageopacity="0"
     inkscape:pageshadow="2"
     inkscape:window-width="1920"
     inkscape:window-height="1018"
     id="namedview708"
     showgrid="false"
     inkscape:zoom="0.96235508"
     inkscape:cx="499.41347"
     inkscape:cy="230.47945"
     inkscape:window-x="-8"
     inkscape:window-y="-8"
     inkscape:window-maximized="1"
     inkscape:current-layer="g266" />
  <rect
     stroke="#000000"
     stroke-width="0"
     fill="#ffffff"
     x="0"
     y="0"
     width="819"
     height="569"
     id="rect4" />
  <g
     transform="translate(101.0,100.0)"
     id="g6">
    <line
       x1="0.0"
       y1="0.0"
       x2="0.0"
       y2="47.5"
       stroke-dasharray="23, 0"
       stroke="#333333"
       stroke-width="3"
       id="line8" />
    <g
       transform="translate(0.0,50.0) rotate(270.0)"
       id="g10">
      <path
         d="M13.0,-7.0 L3.0,0 L13.0,7.0 M0,0z"
         fill="none"
         stroke="#333333"
         stroke-width="3.0"
         id="path12" />
    </g>
  </g>
  <g
     transform="translate(1.0,150.0) rotate(0 100.0 50.0)"
     id="g14">
    <defs
       id="defs16">
      <linearGradient
         id="g1"
         x1="50%"
         y1="-25%"
         x2="50%"
         y2="100%">
        <stop
           stop-color="white"
           offset="0%"
           id="stop19" />
        <stop
           stop-color="#339966"
           offset="100%"
           id="stop21" />
      </linearGradient>
    </defs>
    <g
       transform="translate(4.0,4.0)"
       id="g23">
      <path
         d="M190.0,0 Q200.0,0 200.0,10 L200.0,90.0 Q200.0,100.0 190.0,100.0 L10,100.0 Q0,100.0 0,90.0 L0,10 Q0,0 10,0 Z"
         stroke="#A8A8A8"
         stroke-width="0"
         stroke-opacity=".6"
         fill-opacity=".6"
         fill="#A8A8A8"
         id="path25" />
    </g>
    <path
       d="M190.0,0 Q200.0,0 200.0,10 L200.0,90.0 Q200.0,100.0 190.0,100.0 L10,100.0 Q0,100.0 0,90.0 L0,10 Q0,0 10,0 Z"
       stroke="#333333"
       stroke-width="2"
       style="fill:url(#g1)"
       id="path27" />
    <g
       transform="translate(0.0,47.0)"
       id="g29">
      <text
         x="100.0"
         style="text-anchor: middle"
         y="-3.0"
         id="text31">
        <tspan
           xml:space="preserve"
           font-size="18"
           font-family="Verdana"
           fill="#000000"
           font-weight="bold"
           id="tspan33">Parse initial</tspan>      </text>
      <text
         x="100.0"
         style="text-anchor: middle"
         y="19.2"
         id="text35">
        <tspan
           xml:space="preserve"
           font-size="18"
           font-family="Verdana"
           fill="#000000"
           font-weight="bold"
           id="tspan37">elite ligands</tspan>      </text>
    </g>
  </g>
  <g
     transform="translate(1.0,300.0) rotate(0 100.0 50.0)"
     id="g39">
    <defs
       id="defs41">
      <linearGradient
         id="g2"
         x1="50%"
         y1="-25%"
         x2="50%"
         y2="100%">
        <stop
           stop-color="white"
           offset="0%"
           id="stop44" />
        <stop
           stop-color="#339966"
           offset="100%"
           id="stop46" />
      </linearGradient>
    </defs>
    <g
       transform="translate(4.0,4.0)"
       id="g48">
      <path
         d="M190.0,0 Q200.0,0 200.0,10 L200.0,90.0 Q200.0,100.0 190.0,100.0 L10,100.0 Q0,100.0 0,90.0 L0,10 Q0,0 10,0 Z"
         stroke="#A8A8A8"
         stroke-width="0"
         stroke-opacity=".6"
         fill-opacity=".6"
         fill="#A8A8A8"
         id="path50" />
    </g>
    <path
       d="M190.0,0 Q200.0,0 200.0,10 L200.0,90.0 Q200.0,100.0 190.0,100.0 L10,100.0 Q0,100.0 0,90.0 L0,10 Q0,0 10,0 Z"
       stroke="#333333"
       stroke-width="2"
       style="fill:url(#g2)"
       id="path52" />
    <g
       transform="translate(0.0,47.0)"
       id="g54">
      <text
         x="100.0"
         style="text-anchor: middle"
         y="-3.0"
         id="text56">
        <tspan
           xml:space="preserve"
           font-size="18"
           font-family="Verdana"
           fill="#000000"
           font-weight="bold"
           id="tspan58">Scan</tspan>      </text>
      <text
         x="100.0"
         style="text-anchor: middle"
         y="19.2"
         id="text60">
        <tspan
           xml:space="preserve"
           font-size="18"
           font-family="Verdana"
           fill="#000000"
           font-weight="bold"
           id="tspan62">fragments</tspan>      </text>
    </g>
  </g>
  <g
     transform="translate(1.0,450.0) rotate(0 100.0 50.0)"
     id="g64">
    <defs
       id="defs66">
      <linearGradient
         id="g3"
         x1="50%"
         y1="-25%"
         x2="50%"
         y2="100%">
        <stop
           stop-color="white"
           offset="0%"
           id="stop69" />
        <stop
           stop-color="#339966"
           offset="100%"
           id="stop71" />
      </linearGradient>
    </defs>
    <g
       transform="translate(4.0,4.0)"
       id="g73">
      <path
         d="M190.0,0 Q200.0,0 200.0,10 L200.0,90.0 Q200.0,100.0 190.0,100.0 L10,100.0 Q0,100.0 0,90.0 L0,10 Q0,0 10,0 Z"
         stroke="#A8A8A8"
         stroke-width="0"
         stroke-opacity=".6"
         fill-opacity=".6"
         fill="#A8A8A8"
         id="path75" />
    </g>
    <path
       d="M190.0,0 Q200.0,0 200.0,10 L200.0,90.0 Q200.0,100.0 190.0,100.0 L10,100.0 Q0,100.0 0,90.0 L0,10 Q0,0 10,0 Z"
       stroke="#333333"
       stroke-width="2"
       style="fill:url(#g3)"
       id="path77" />
    <g
       transform="translate(0.0,47.0)"
       id="g79">
      <text
         x="100.0"
         style="text-anchor: middle"
         y="-3.0"
         id="text81">
        <tspan
           xml:space="preserve"
           font-size="18"
           font-family="Verdana"
           fill="#000000"
           font-weight="bold"
           id="tspan83">Create</tspan>      </text>
      <text
         x="100.0"
         style="text-anchor: middle"
         y="19.2"
         id="text85">
        <tspan
           xml:space="preserve"
           font-size="18"
           font-family="Verdana"
           fill="#000000"
           font-weight="bold"
           id="tspan87">thread pool</tspan>      </text>
    </g>
  </g>
  <g
     transform="translate(601.0,450.0) rotate(0 100.0 50.0)"
     id="g89">
    <defs
       id="defs91">
      <linearGradient
         id="g4"
         x1="50%"
         y1="-25%"
         x2="50%"
         y2="100%">
        <stop
           stop-color="white"
           offset="0%"
           id="stop94" />
        <stop
           stop-color="#339966"
           offset="100%"
           id="stop96" />
      </linearGradient>
    </defs>
    <g
       transform="translate(4.0,4.0)"
       id="g98">
      <path
         d="M190.0,0 Q200.0,0 200.0,10 L200.0,90.0 Q200.0,100.0 190.0,100.0 L10,100.0 Q0,100.0 0,90.0 L0,10 Q0,0 10,0 Z"
         stroke="#A8A8A8"
         stroke-width="0"
         stroke-opacity=".6"
         fill-opacity=".6"
         fill="#A8A8A8"
         id="path100" />
    </g>
    <path
       d="M190.0,0 Q200.0,0 200.0,10 L200.0,90.0 Q200.0,100.0 190.0,100.0 L10,100.0 Q0,100.0 0,90.0 L0,10 Q0,0 10,0 Z"
       stroke="#333333"
       stroke-width="2"
       style="fill:url(#g4)"
       id="path102" />
    <g
       transform="translate(0.0,37.0)"
       id="g104">
      <text
         x="100.0"
         style="text-anchor: middle"
         y="-3.0"
         id="text106">
        <tspan
           xml:space="preserve"
           font-size="18"
           font-family="Verdana"
           fill="#000000"
           font-weight="bold"
           id="tspan108">Add fragments</tspan>      </text>
      <text
         x="100.0"
         style="text-anchor: middle"
         y="19.2"
         id="text110">
        <tspan
           xml:space="preserve"
           font-size="18"
           font-family="Verdana"
           fill="#000000"
           font-weight="bold"
           id="tspan112">to elite ligands</tspan>      </text>
      <text
         x="100.0"
         style="text-anchor: middle"
         y="41.4"
         id="text114">
        <tspan
           xml:space="preserve"
           font-size="18"
           font-family="Verdana"
           fill="#FFFFFF"
           font-weight="bold"
           id="tspan116">in parallel</tspan>      </text>
    </g>
  </g>
  <g
     transform="translate(101.0,250.0)"
     id="g118">
    <line
       x1="0.0"
       y1="0.0"
       x2="0.0"
       y2="47.5"
       stroke-dasharray="23, 0"
       stroke="#333333"
       stroke-width="3"
       id="line120" />
    <g
       transform="translate(0.0,50.0) rotate(270.0)"
       id="g122">
      <path
         d="M13.0,-7.0 L3.0,0 L13.0,7.0 M0,0z"
         fill="none"
         stroke="#333333"
         stroke-width="3.0"
         id="path124" />
    </g>
  </g>
  <g
     transform="translate(101.0,400.0)"
     id="g126">
    <line
       x1="0.0"
       y1="0.0"
       x2="0.0"
       y2="47.5"
       stroke-dasharray="23, 0"
       stroke="#333333"
       stroke-width="3"
       id="line128" />
    <g
       transform="translate(0.0,50.0) rotate(270.0)"
       id="g130">
      <path
         d="M13.0,-7.0 L3.0,0 L13.0,7.0 M0,0z"
         fill="none"
         stroke="#333333"
         stroke-width="3.0"
         id="path132" />
    </g>
  </g>
  <g
     transform="translate(301.0,450.0) rotate(0 100.0 50.0)"
     id="g134">
    <defs
       id="defs136">
      <linearGradient
         id="g7"
         x1="50%"
         y1="-25%"
         x2="50%"
         y2="100%">
        <stop
           stop-color="white"
           offset="0%"
           id="stop139" />
        <stop
           stop-color="#ff6633"
           offset="100%"
           id="stop141" />
      </linearGradient>
    </defs>
    <g
       transform="translate(4.0,4.0)"
       id="g143">
      <polygon
         points="100.0,0 200.0,50.0 100.0,100.0 0,50.0"
         stroke="#A8A8A8"
         stroke-width="0"
         stroke-opacity=".6"
         fill-opacity=".6"
         fill="#A8A8A8"
         id="polygon145" />
    </g>
    <polygon
       points="100.0,0 200.0,50.0 100.0,100.0 0,50.0"
       stroke="#333333"
       stroke-width="2"
       style="fill:url(#g7)"
       id="polygon147" />
    <g
       transform="translate(0.0,47.0)"
       id="g149">
      <text
         x="100.0"
         style="text-anchor: middle"
         y="-3.0"
         id="text151">
        <tspan
           xml:space="preserve"
           font-size="18"
           font-family="Verdana"
           fill="#000000"
           font-weight="bold"
           id="tspan153">Max failures</tspan>      </text>
      <text
         x="100.0"
         style="text-anchor: middle"
         y="19.2"
         id="text155">
        <tspan
           xml:space="preserve"
           font-size="18"
           font-family="Verdana"
           fill="#000000"
           font-weight="bold"
           id="tspan157">reached?</tspan>      </text>
    </g>
  </g>
  <g
     transform="translate(300.0,500.0)"
     id="g159">
    <line
       x1="-2.5"
       y1="6.123233995736766E-16"
       x2="-99.0"
       y2="0.0"
       stroke-dasharray="23, 0"
       stroke="#333333"
       stroke-width="3"
       id="line161" />
    <g
       transform="translate(0.0,0.0) rotate(180.0)"
       id="g163">
      <path
         d="M13.0,-7.0 L3.0,0 L13.0,7.0 M0,0z"
         fill="none"
         stroke="#333333"
         stroke-width="3.0"
         id="path165" />
    </g>
  </g>
  <g
     transform="translate(601.0,300.0) rotate(0 100.0 50.0)"
     id="g167">
    <defs
       id="defs169">
      <linearGradient
         id="g9"
         x1="50%"
         y1="-25%"
         x2="50%"
         y2="100%">
        <stop
           stop-color="white"
           offset="0%"
           id="stop172" />
        <stop
           stop-color="#339966"
           offset="100%"
           id="stop174" />
      </linearGradient>
    </defs>
    <g
       transform="translate(4.0,4.0)"
       id="g176">
      <path
         d="M190.0,0 Q200.0,0 200.0,10 L200.0,90.0 Q200.0,100.0 190.0,100.0 L10,100.0 Q0,100.0 0,90.0 L0,10 Q0,0 10,0 Z"
         stroke="#A8A8A8"
         stroke-width="0"
         stroke-opacity=".6"
         fill-opacity=".6"
         fill="#A8A8A8"
         id="path178" />
    </g>
    <path
       d="M190.0,0 Q200.0,0 200.0,10 L200.0,90.0 Q200.0,100.0 190.0,100.0 L10,100.0 Q0,100.0 0,90.0 L0,10 Q0,0 10,0 Z"
       stroke="#333333"
       stroke-width="2"
       style="fill:url(#g9)"
       id="path180" />
    <g
       transform="translate(0.0,26.0)"
       id="g182">
      <text
         x="100.0"
         style="text-anchor: middle"
         y="-3.0"
         id="text184">
        <tspan
           xml:space="preserve"
           font-size="18"
           font-family="Verdana"
           fill="#000000"
           font-weight="bold"
           id="tspan186">Crossover</tspan>      </text>
      <text
         x="100.0"
         style="text-anchor: middle"
         y="19.2"
         id="text188">
        <tspan
           xml:space="preserve"
           font-size="18"
           font-family="Verdana"
           fill="#000000"
           font-weight="bold"
           id="tspan190">branches of</tspan>      </text>
      <text
         x="100.0"
         style="text-anchor: middle"
         y="41.4"
         id="text192">
        <tspan
           xml:space="preserve"
           font-size="18"
           font-family="Verdana"
           fill="#000000"
           font-weight="bold"
           id="tspan194">elite ligands</tspan>      </text>
      <text
         x="100.0"
         style="text-anchor: middle"
         y="63.599999999999994"
         id="text196">
        <tspan
           xml:space="preserve"
           font-size="18"
           font-family="Verdana"
           fill="#FFFFFF"
           font-weight="bold"
           id="tspan198">in parallel</tspan>      </text>
    </g>
  </g>
  <g
     transform="translate(701.0,300.0)"
     id="g200">
    <line
       x1="0.0"
       y1="0.0"
       x2="0.0"
       y2="-47.5"
       stroke-dasharray="23, 0"
       stroke="#333333"
       stroke-width="3"
       id="line202" />
    <g
       transform="translate(0.0,-50.0) rotate(450.0)"
       id="g204">
      <path
         d="M13.0,-7.0 L3.0,0 L13.0,7.0 M0,0z"
         fill="none"
         stroke="#333333"
         stroke-width="3.0"
         id="path206" />
    </g>
  </g>
  <g
     transform="translate(601.0,150.0) rotate(0 100.0 50.0)"
     id="g208">
    <defs
       id="defs210">
      <linearGradient
         id="g11"
         x1="50%"
         y1="-25%"
         x2="50%"
         y2="100%">
        <stop
           stop-color="white"
           offset="0%"
           id="stop213" />
        <stop
           stop-color="#339966"
           offset="100%"
           id="stop215" />
      </linearGradient>
    </defs>
    <g
       transform="translate(4.0,4.0)"
       id="g217">
      <path
         d="M190.0,0 Q200.0,0 200.0,10 L200.0,90.0 Q200.0,100.0 190.0,100.0 L10,100.0 Q0,100.0 0,90.0 L0,10 Q0,0 10,0 Z"
         stroke="#A8A8A8"
         stroke-width="0"
         stroke-opacity=".6"
         fill-opacity=".6"
         fill="#A8A8A8"
         id="path219" />
    </g>
    <path
       d="M190.0,0 Q200.0,0 200.0,10 L200.0,90.0 Q200.0,100.0 190.0,100.0 L10,100.0 Q0,100.0 0,90.0 L0,10 Q0,0 10,0 Z"
       stroke="#333333"
       stroke-width="2"
       style="fill:url(#g11)"
       id="path221" />
    <g
       transform="translate(0.0,26.0)"
       id="g223">
      <text
         x="100.0"
         style="text-anchor: middle"
         y="-3.0"
         id="text225">
        <tspan
           xml:space="preserve"
           font-size="18"
           font-family="Verdana"
           fill="#000000"
           font-weight="bold"
           id="tspan227">Invoke</tspan>      </text>
      <text
         x="100.0"
         style="text-anchor: middle"
         y="19.2"
         id="text229">
        <tspan
           xml:space="preserve"
           font-size="18"
           font-family="Verdana"
           fill="#000000"
           font-weight="bold"
           id="tspan231">idock to evaluate</tspan>      </text>
      <text
         x="100.0"
         style="text-anchor: middle"
         y="41.4"
         id="text233">
        <tspan
           xml:space="preserve"
           font-size="18"
           font-family="Verdana"
           fill="#000000"
           font-weight="bold"
           id="tspan235">ligands</tspan>      </text>
      <text
         x="100.0"
         style="text-anchor: middle"
         y="63.599999999999994"
         id="text237">
        <tspan
           xml:space="preserve"
           font-size="18"
           font-family="Verdana"
           fill="#FFFFFF"
           font-weight="bold"
           id="tspan239">in parallel</tspan>      </text>
    </g>
  </g>
  <g
     transform="translate(301.0,0.0) rotate(0 100.0 50.0)"
     id="g241">
    <defs
       id="defs243">
      <linearGradient
         id="g12"
         x1="50%"
         y1="-25%"
         x2="50%"
         y2="100%">
        <stop
           stop-color="white"
           offset="0%"
           id="stop246" />
        <stop
           stop-color="#339966"
           offset="100%"
           id="stop248" />
      </linearGradient>
    </defs>
    <g
       transform="translate(4.0,4.0)"
       id="g250">
      <path
         d="M190.0,0 Q200.0,0 200.0,10 L200.0,90.0 Q200.0,100.0 190.0,100.0 L10,100.0 Q0,100.0 0,90.0 L0,10 Q0,0 10,0 Z"
         stroke="#A8A8A8"
         stroke-width="0"
         stroke-opacity=".6"
         fill-opacity=".6"
         fill="#A8A8A8"
         id="path252" />
    </g>
    <path
       d="M190.0,0 Q200.0,0 200.0,10 L200.0,90.0 Q200.0,100.0 190.0,100.0 L10,100.0 Q0,100.0 0,90.0 L0,10 Q0,0 10,0 Z"
       stroke="#333333"
       stroke-width="2"
       style="fill:url(#g12)"
       id="path254" />
    <g
       transform="translate(0.0,47.0)"
       id="g256">
      <text
         x="100.0"
         style="text-anchor: middle"
         y="-3.0"
         id="text258">
        <tspan
           xml:space="preserve"
           font-size="18"
           font-family="Verdana"
           fill="#000000"
           font-weight="bold"
           id="tspan260">Select elite ligands</tspan>      </text>
      <text
         x="100.0"
         style="text-anchor: middle"
         y="19.2"
         id="text262">
        <tspan
           xml:space="preserve"
           font-size="18"
           font-family="Verdana"
           fill="#000000"
           font-weight="bold"
           id="tspan264">by sorting</tspan>      </text>
    </g>
  </g>
  <g
     transform="translate(501.0,500.0)"
     id="g266">
    <line
       x1="0.0"
       y1="0.0"
       x2="97.5"
       y2="0.0"
       stroke-dasharray="23, 0"
       stroke="#333333"
       stroke-width="3"
       id="line268" />
    <g
       transform="translate(100.0,0.0) rotate(180.0)"
       id="g270">
      <path
         d="M13.0,-7.0 L3.0,0 L13.0,7.0 M0,0z"
         fill="none"
         stroke="#333333"
         stroke-width="3.0"
         id="path272" />
    </g>
    <g
       transform="translate(47.273822,-10.391175)"
       id="g274">
      <rect
         x="-13.5"
         y="-10"
         width="27"
         height="16"
         id="rect276"
         style="fill:#ffffff" />
      <text
         x="0"
         style="text-anchor:middle"
         y="2"
         id="text278">
        <tspan
           font-size="14px"
           font-weight="bold"
           id="tspan280"
           style="font-size:14px;font-weight:bold;fill:#000000;font-family:Verdana">No</tspan>
      </text>
    </g>
  </g>
  <g
     transform="translate(701.0,450.0)"
     id="g282">
    <line
       x1="0.0"
       y1="0.0"
       x2="0.0"
       y2="-47.5"
       stroke-dasharray="23, 0"
       stroke="#333333"
       stroke-width="3"
       id="line284" />
    <g
       transform="translate(0.0,-50.0) rotate(450.0)"
       id="g286">
      <path
         d="M13.0,-7.0 L3.0,0 L13.0,7.0 M0,0z"
         fill="none"
         stroke="#333333"
         stroke-width="3.0"
         id="path288" />
    </g>
  </g>
  <g
     transform="translate(701.0,150.0)"
     id="g290">
    <line
       x1="0.0"
       y1="0.0"
       x2="0.0"
       y2="-47.5"
       stroke-dasharray="23, 0"
       stroke="#333333"
       stroke-width="3"
       id="line292" />
    <g
       transform="translate(0.0,-50.0) rotate(450.0)"
       id="g294">
      <path
         d="M13.0,-7.0 L3.0,0 L13.0,7.0 M0,0z"
         fill="none"
         stroke="#333333"
         stroke-width="3.0"
         id="path296" />
    </g>
  </g>
  <g
     transform="translate(601.0,0.0) rotate(0 100.0 50.0)"
     id="g298">
    <defs
       id="defs300">
      <linearGradient
         id="g16"
         x1="50%"
         y1="-25%"
         x2="50%"
         y2="100%">
        <stop
           stop-color="white"
           offset="0%"
           id="stop303" />
        <stop
           stop-color="#339966"
           offset="100%"
           id="stop305" />
      </linearGradient>
    </defs>
    <g
       transform="translate(4.0,4.0)"
       id="g307">
      <path
         d="M190.0,0 Q200.0,0 200.0,10 L200.0,90.0 Q200.0,100.0 190.0,100.0 L10,100.0 Q0,100.0 0,90.0 L0,10 Q0,0 10,0 Z"
         stroke="#A8A8A8"
         stroke-width="0"
         stroke-opacity=".6"
         fill-opacity=".6"
         fill="#A8A8A8"
         id="path309" />
    </g>
    <path
       d="M190.0,0 Q200.0,0 200.0,10 L200.0,90.0 Q200.0,100.0 190.0,100.0 L10,100.0 Q0,100.0 0,90.0 L0,10 Q0,0 10,0 Z"
       stroke="#333333"
       stroke-width="2"
       style="fill:url(#g16)"
       id="path311" />
    <g
       transform="translate(0.0,37.0)"
       id="g313">
      <text
         x="100.0"
         style="text-anchor: middle"
         y="-3.0"
         id="text315">
        <tspan
           xml:space="preserve"
           font-size="18"
           font-family="Verdana"
           fill="#000000"
           font-weight="bold"
           id="tspan317">Parse</tspan>      </text>
      <text
         x="100.0"
         style="text-anchor: middle"
         y="19.2"
         id="text319">
        <tspan
           xml:space="preserve"
           font-size="18"
           font-family="Verdana"
           fill="#000000"
           font-weight="bold"
           id="tspan321">free energy</tspan>      </text>
      <text
         x="100.0"
         style="text-anchor: middle"
         y="41.4"
         id="text323">
        <tspan
           xml:space="preserve"
           font-size="18"
           font-family="Verdana"
           fill="#000000"
           font-weight="bold"
           id="tspan325">and coordinates</tspan>      </text>
    </g>
  </g>
  <g
     transform="translate(601.0,50.000000000000014)"
     id="g327">
    <line
       x1="0.0"
       y1="0.0"
       x2="-97.5"
       y2="-3.061616997868383E-16"
       stroke-dasharray="23, 0"
       stroke="#333333"
       stroke-width="3"
       id="line329" />
    <g
       transform="translate(-100.0,0.0) rotate(360.0)"
       id="g331">
      <path
         d="M13.0,-7.0 L3.0,0 L13.0,7.0 M0,0z"
         fill="none"
         stroke="#333333"
         stroke-width="3.0"
         id="path333" />
    </g>
  </g>
  <g
     transform="translate(301.0,500.0)"
     id="g335">
    <path
       d="M-4.0,0.0 L-48.0,0.0 Q-58.0,0.0 -58.0,-10.0 L-58.0,-419.99999999999994 Q-58.0,-429.99999999999994 -48.0,-429.99999999999994 L0.0,-429.99999999999994 "
       stroke-dasharray="23, 0"
       fill="none"
       stroke="#333333"
       stroke-width="3"
       id="path337" />
    <g
       transform="translate(0.0,0.0) rotate(180.0)"
       id="g339">
      <path
         d="M13.0,-7.0 L3.0,0 L13.0,7.0 M0,0z"
         fill="none"
         stroke="#333333"
         stroke-width="3.0"
         id="path341" />
    </g>
  </g>
  <g
     transform="translate(1.0,0.0) rotate(0 100.0 50.0)"
     id="g343">
    <defs
       id="defs345">
      <linearGradient
         id="g19"
         x1="50%"
         y1="-25%"
         x2="50%"
         y2="100%">
        <stop
           stop-color="white"
           offset="0%"
           id="stop348" />
        <stop
           stop-color="#ff0000"
           offset="100%"
           id="stop350" />
      </linearGradient>
    </defs>
    <g
       transform="translate(4.0,4.0)"
       id="g352">
      <path
         d="M50.0,0 L150.0,0 Q170.71067811865476,-7.105427357601002E-15 185.35533905932738,14.644660940672615 Q200.0,29.289321881345238 200.0,49.999999999999986 Q200.0,70.71067811865476 185.35533905932738,85.35533905932738 Q170.71067811865476,100.0 150.0,100.0 L50.0,100.0 Q29.289321881345252,100.0 14.64466094067263,85.35533905932738 Q0.0,70.71067811865476 0.0,50.0 Q-7.105427357601002E-15,29.289321881345252 14.644660940672615,14.64466094067263 Q29.289321881345238,0.0 49.99999999999999,0.0 Z"
         stroke="#A8A8A8"
         stroke-width="0"
         stroke-opacity=".6"
         fill-opacity=".6"
         fill="#A8A8A8"
         id="path354" />
    </g>
    <path
       d="M50.0,0 L150.0,0 Q170.71067811865476,-7.105427357601002E-15 185.35533905932738,14.644660940672615 Q200.0,29.289321881345238 200.0,49.999999999999986 Q200.0,70.71067811865476 185.35533905932738,85.35533905932738 Q170.71067811865476,100.0 150.0,100.0 L50.0,100.0 Q29.289321881345252,100.0 14.64466094067263,85.35533905932738 Q0.0,70.71067811865476 0.0,50.0 Q-7.105427357601002E-15,29.289321881345252 14.644660940672615,14.64466094067263 Q29.289321881345238,0.0 49.99999999999999,0.0 Z"
       stroke="#333333"
       stroke-width="2"
       style="fill:url(#g19)"
       id="path356" />
    <g
       transform="translate(0.0,58.0)"
       id="g358">
      <text
         x="100.0"
         style="text-anchor: middle"
         y="-3.0"
         id="text360">
        <tspan
           xml:space="preserve"
           font-size="18"
           font-family="Verdana"
           fill="#000000"
           font-weight="bold"
           id="tspan362">Start</tspan>      </text>
    </g>
  </g>
  <g
     transform="translate(301.0,150.0) rotate(0 100.0 50.0)"
     id="g364">
    <defs
       id="defs366">
      <linearGradient
         id="g20"
         x1="50%"
         y1="-25%"
         x2="50%"
         y2="100%">
        <stop
           stop-color="white"
           offset="0%"
           id="stop369" />
        <stop
           stop-color="#ff0000"
           offset="100%"
           id="stop371" />
      </linearGradient>
    </defs>
    <g
       transform="translate(4.0,4.0)"
       id="g373">
      <path
         d="M50.0,0 L150.0,0 Q170.71067811865476,-7.105427357601002E-15 185.35533905932738,14.644660940672615 Q200.0,29.289321881345238 200.0,49.999999999999986 Q200.0,70.71067811865476 185.35533905932738,85.35533905932738 Q170.71067811865476,100.0 150.0,100.0 L50.0,100.0 Q29.289321881345252,100.0 14.64466094067263,85.35533905932738 Q0.0,70.71067811865476 0.0,50.0 Q-7.105427357601002E-15,29.289321881345252 14.644660940672615,14.64466094067263 Q29.289321881345238,0.0 49.99999999999999,0.0 Z"
         stroke="#A8A8A8"
         stroke-width="0"
         stroke-opacity=".6"
         fill-opacity=".6"
         fill="#A8A8A8"
         id="path375" />
    </g>
    <path
       d="M50.0,0 L150.0,0 Q170.71067811865476,-7.105427357601002E-15 185.35533905932738,14.644660940672615 Q200.0,29.289321881345238 200.0,49.999999999999986 Q200.0,70.71067811865476 185.35533905932738,85.35533905932738 Q170.71067811865476,100.0 150.0,100.0 L50.0,100.0 Q29.289321881345252,100.0 14.64466094067263,85.35533905932738 Q0.0,70.71067811865476 0.0,50.0 Q-7.105427357601002E-15,29.289321881345252 14.644660940672615,14.64466094067263 Q29.289321881345238,0.0 49.99999999999999,0.0 Z"
       stroke="#333333"
       stroke-width="2"
       style="fill:url(#g20)"
       id="path377" />
    <g
       transform="translate(0.0,58.0)"
       id="g379">
      <text
         x="100.0"
         style="text-anchor: middle"
         y="-3.0"
         id="text381">
        <tspan
           xml:space="preserve"
           font-size="18"
           font-family="Verdana"
           fill="#000000"
           font-weight="bold"
           id="tspan383">End</tspan>      </text>
    </g>
  </g>
  <g
     transform="translate(301.0,300.0) rotate(0 100.0 50.0)"
     id="g385">
    <defs
       id="defs387">
      <linearGradient
         id="g21"
         x1="50%"
         y1="-25%"
         x2="50%"
         y2="100%">
        <stop
           stop-color="white"
           offset="0%"
           id="stop390" />
        <stop
           stop-color="#339966"
           offset="100%"
           id="stop392" />
      </linearGradient>
    </defs>
    <g
       transform="translate(4.0,4.0)"
       id="g394">
      <path
         d="M190.0,0 Q200.0,0 200.0,10 L200.0,90.0 Q200.0,100.0 190.0,100.0 L10,100.0 Q0,100.0 0,90.0 L0,10 Q0,0 10,0 Z"
         stroke="#A8A8A8"
         stroke-width="0"
         stroke-opacity=".6"
         fill-opacity=".6"
         fill="#A8A8A8"
         id="path396" />
    </g>
    <path
       d="M190.0,0 Q200.0,0 200.0,10 L200.0,90.0 Q200.0,100.0 190.0,100.0 L10,100.0 Q0,100.0 0,90.0 L0,10 Q0,0 10,0 Z"
       stroke="#333333"
       stroke-width="2"
       style="fill:url(#g21)"
       id="path398" />
    <g
       transform="translate(0.0,47.0)"
       id="g400">
      <text
         x="100.0"
         style="text-anchor: middle"
         y="-3.0"
         id="text402">
        <tspan
           xml:space="preserve"
           font-size="18"
           font-family="Verdana"
           fill="#000000"
           font-weight="bold"
           id="tspan404">Destroy</tspan>      </text>
      <text
         x="100.0"
         style="text-anchor: middle"
         y="19.2"
         id="text406">
        <tspan
           xml:space="preserve"
           font-size="18"
           font-family="Verdana"
           fill="#000000"
           font-weight="bold"
           id="tspan408">thread pool</tspan>      </text>
    </g>
  </g>
  <g
     transform="translate(401.0,250.0)"
     id="g410">
    <line
       x1="0.0"
       y1="2.5"
       x2="0.0"
       y2="50.0"
       stroke-dasharray="23, 0"
       stroke="#333333"
       stroke-width="3"
       id="line412" />
    <g
       transform="translate(0.0,0.0) rotate(90.0)"
       id="g414">
      <path
         d="M13.0,-7.0 L3.0,0 L13.0,7.0 M0,0z"
         fill="none"
         stroke="#333333"
         stroke-width="3.0"
         id="path416" />
    </g>
  </g>
  <g
     transform="translate(401.0,450.0)"
     id="g418">
    <line
       x1="0.0"
       y1="0.0"
       x2="0.0"
       y2="-47.5"
       stroke-dasharray="23, 0"
       stroke="#333333"
       stroke-width="3"
       id="line420" />
    <g
       transform="translate(0.0,-50.0) rotate(450.0)"
       id="g422">
      <path
         d="M13.0,-7.0 L3.0,0 L13.0,7.0 M0,0z"
         fill="none"
         stroke="#333333"
         stroke-width="3.0"
         id="path424" />
    </g>
    <g
       transform="translate(21.430292,-16.491473)"
       id="g426">
      <rect
         x="-18.5"
         y="-10"
         width="37"
         height="16"
         id="rect428"
         style="fill:#ffffff" />
      <text
         x="0"
         style="text-anchor:middle"
         y="2"
         id="text430">
        <tspan
           font-size="14px"
           font-weight="bold"
           id="tspan432"
           style="font-size:14px;font-weight:bold;fill:#000000;font-family:Verdana">Yes</tspan>
      </text>
    </g>
  </g>
</svg>
