<svg xmlns:gliffy="http://www.gliffy.com" xmlns:x="http://ns.adobe.com/Extensibility/1.0/" xmlns:i="http://ns.adobe.com/AdobeIllustrator/10.0/" xmlns:graph="http://ns.adobe.com/Graphs/1.0/" xmlns:a="http://ns.adobe.com/AdobeSVGViewerExtensions/3.0/" xmlns="http://www.w3.org/2000/svg" xmlns:xlink="http://www.w3.org/1999/xlink" width="820" height="570"><rect stroke="#000000" stroke-width="0" fill="#ffffff" x="0" y="0" width="819" height="569"/><g transform='translate(141.0,150.0)'><path d='M-0.07741935483870965,-3.0 Q0.0,-25.0 -20.0,-25.0 Q-40.0,-25.0 -40.0,-50.0 ' stroke-dasharray='23, 0' fill='none' stroke='#333333' stroke-width='3' /><g transform='translate(0.0,0.0) rotate(264.0)'><path d='M13.0,-7.0 L3.0,0 L13.0,7.0 M0,0z' fill='none' stroke='#333333' stroke-width='3.0' /></g></g><g transform='translate(1.0,150.0) rotate(0 100.0 50.0)'><defs><linearGradient id='g1' x1='50%' y1='-25%' x2='50%' y2='100%'><stop stop-color='white' offset='0%'/><stop stop-color='#339966' offset='100%'/></linearGradient></defs><g transform='translate(4.0,4.0)'><path d="M190.0,0 Q200.0,0 200.0,10 L200.0,90.0 Q200.0,100.0 190.0,100.0 L10,100.0 Q0,100.0 0,90.0 L0,10 Q0,0 10,0 Z" stroke="#A8A8A8" stroke-width="0" stroke-opacity=".6" fill-opacity=".6" fill="#A8A8A8"/></g><path d="M190.0,0 Q200.0,0 200.0,10 L200.0,90.0 Q200.0,100.0 190.0,100.0 L10,100.0 Q0,100.0 0,90.0 L0,10 Q0,0 10,0 Z" stroke="#333333" stroke-width="2" style="fill:url(#g1)"/><g  transform='translate(0.0,47.0)'><text x='100.0' style='text-anchor: middle' y='-3.0'><tspan xml:space='preserve' font-size='18' font-family='Verdana' fill='#000000' font-weight='bold' >Parse initial</tspan></text><text x='100.0' style='text-anchor: middle' y='19.2'><tspan xml:space='preserve' font-size='18' font-family='Verdana' fill='#000000' font-weight='bold' >elite ligands</tspan></text></g></g><g transform='translate(1.0,300.0) rotate(0 100.0 50.0)'><defs><linearGradient id='g2' x1='50%' y1='-25%' x2='50%' y2='100%'><stop stop-color='white' offset='0%'/><stop stop-color='#339966' offset='100%'/></linearGradient></defs><g transform='translate(4.0,4.0)'><path d="M190.0,0 Q200.0,0 200.0,10 L200.0,90.0 Q200.0,100.0 190.0,100.0 L10,100.0 Q0,100.0 0,90.0 L0,10 Q0,0 10,0 Z" stroke="#A8A8A8" stroke-width="0" stroke-opacity=".6" fill-opacity=".6" fill="#A8A8A8"/></g><path d="M190.0,0 Q200.0,0 200.0,10 L200.0,90.0 Q200.0,100.0 190.0,100.0 L10,100.0 Q0,100.0 0,90.0 L0,10 Q0,0 10,0 Z" stroke="#333333" stroke-width="2" style="fill:url(#g2)"/><g  transform='translate(0.0,47.0)'><text x='100.0' style='text-anchor: middle' y='-3.0'><tspan xml:space='preserve' font-size='18' font-family='Verdana' fill='#000000' font-weight='bold' >Scan</tspan></text><text x='100.0' style='text-anchor: middle' y='19.2'><tspan xml:space='preserve' font-size='18' font-family='Verdana' fill='#000000' font-weight='bold' >fragments</tspan></text></g></g><g transform='translate(1.0,450.0) rotate(0 100.0 50.0)'><defs><linearGradient id='g3' x1='50%' y1='-25%' x2='50%' y2='100%'><stop stop-color='white' offset='0%'/><stop stop-color='#339966' offset='100%'/></linearGradient></defs><g transform='translate(4.0,4.0)'><path d="M190.0,0 Q200.0,0 200.0,10 L200.0,90.0 Q200.0,100.0 190.0,100.0 L10,100.0 Q0,100.0 0,90.0 L0,10 Q0,0 10,0 Z" stroke="#A8A8A8" stroke-width="0" stroke-opacity=".6" fill-opacity=".6" fill="#A8A8A8"/></g><path d="M190.0,0 Q200.0,0 200.0,10 L200.0,90.0 Q200.0,100.0 190.0,100.0 L10,100.0 Q0,100.0 0,90.0 L0,10 Q0,0 10,0 Z" stroke="#333333" stroke-width="2" style="fill:url(#g3)"/><g  transform='translate(0.0,47.0)'><text x='100.0' style='text-anchor: middle' y='-3.0'><tspan xml:space='preserve' font-size='18' font-family='Verdana' fill='#000000' font-weight='bold' >Create</tspan></text><text x='100.0' style='text-anchor: middle' y='19.2'><tspan xml:space='preserve' font-size='18' font-family='Verdana' fill='#000000' font-weight='bold' >thread pool</tspan></text></g></g><g transform='translate(601.0,450.0) rotate(0 100.0 50.0)'><defs><linearGradient id='g4' x1='50%' y1='-25%' x2='50%' y2='100%'><stop stop-color='white' offset='0%'/><stop stop-color='#339966' offset='100%'/></linearGradient></defs><g transform='translate(4.0,4.0)'><path d="M190.0,0 Q200.0,0 200.0,10 L200.0,90.0 Q200.0,100.0 190.0,100.0 L10,100.0 Q0,100.0 0,90.0 L0,10 Q0,0 10,0 Z" stroke="#A8A8A8" stroke-width="0" stroke-opacity=".6" fill-opacity=".6" fill="#A8A8A8"/></g><path d="M190.0,0 Q200.0,0 200.0,10 L200.0,90.0 Q200.0,100.0 190.0,100.0 L10,100.0 Q0,100.0 0,90.0 L0,10 Q0,0 10,0 Z" stroke="#333333" stroke-width="2" style="fill:url(#g4)"/><g  transform='translate(0.0,47.0)'><text x='100.0' style='text-anchor: middle' y='-3.0'><tspan xml:space='preserve' font-size='18' font-family='Verdana' fill='#000000' font-weight='bold' >Add fragments</tspan></text><text x='100.0' style='text-anchor: middle' y='19.2'><tspan xml:space='preserve' font-size='18' font-family='Verdana' fill='#000000' font-weight='bold' >to elite ligands</tspan></text></g></g><g transform='translate(141.0,250.0)'><path d='M0.0,0.0 Q0.0,25.0 -40.0,25.0 Q-80.0,25.0 -79.84516129032242,47.0 ' stroke-dasharray='23, 0' fill='none' stroke='#333333' stroke-width='3' /><g transform='translate(-80.0,50.0) rotate(282.0)'><path d='M13.0,-7.0 L3.0,0 L13.0,7.0 M0,0z' fill='none' stroke='#333333' stroke-width='3.0' /></g></g><g transform='translate(141.0,450.0)'><path d='M-0.1548387096774193,-3.0 Q0.0,-25.0 -40.0,-25.0 Q-80.0,-25.0 -80.0,-50.0 ' stroke-dasharray='23, 0' fill='none' stroke='#333333' stroke-width='3' /><g transform='translate(0.0,0.0) rotate(258.0)'><path d='M13.0,-7.0 L3.0,0 L13.0,7.0 M0,0z' fill='none' stroke='#333333' stroke-width='3.0' /></g></g><g transform='translate(301.0,450.0) rotate(0 100.0 50.0)'><defs><linearGradient id='g7' x1='50%' y1='-25%' x2='50%' y2='100%'><stop stop-color='white' offset='0%'/><stop stop-color='#ff6633' offset='100%'/></linearGradient></defs><g transform='translate(4.0,4.0)'><polygon  points="100.0,0 200.0,50.0 100.0,100.0 0,50.0" stroke="#A8A8A8" stroke-width="0" stroke-opacity=".6" fill-opacity=".6" fill="#A8A8A8"/></g><polygon  points="100.0,0 200.0,50.0 100.0,100.0 0,50.0" stroke="#333333" stroke-width="2" style="fill:url(#g7)"/><g  transform='translate(0.0,47.0)'><text x='100.0' style='text-anchor: middle' y='-3.0'><tspan xml:space='preserve' font-size='18' font-family='Verdana' fill='#000000' font-weight='bold' >Max failures</tspan></text><text x='100.0' style='text-anchor: middle' y='19.2'><tspan xml:space='preserve' font-size='18' font-family='Verdana' fill='#000000' font-weight='bold' >reached?</tspan></text></g></g><g transform='translate(300.0,500.0)'><path d='M-3.0,0.010496719775070293 Q-49.5,0.0 -49.5,10.0 Q-49.5,20.0 -99.0,20.0 ' stroke-dasharray='23, 0' fill='none' stroke='#333333' stroke-width='3' /><g transform='translate(0.0,0.0) rotate(179.0)'><path d='M13.0,-7.0 L3.0,0 L13.0,7.0 M0,0z' fill='none' stroke='#333333' stroke-width='3.0' /></g></g><g transform='translate(601.0,300.0) rotate(0 100.0 50.0)'><defs><linearGradient id='g9' x1='50%' y1='-25%' x2='50%' y2='100%'><stop stop-color='white' offset='0%'/><stop stop-color='#339966' offset='100%'/></linearGradient></defs><g transform='translate(4.0,4.0)'><path d="M190.0,0 Q200.0,0 200.0,10 L200.0,90.0 Q200.0,100.0 190.0,100.0 L10,100.0 Q0,100.0 0,90.0 L0,10 Q0,0 10,0 Z" stroke="#A8A8A8" stroke-width="0" stroke-opacity=".6" fill-opacity=".6" fill="#A8A8A8"/></g><path d="M190.0,0 Q200.0,0 200.0,10 L200.0,90.0 Q200.0,100.0 190.0,100.0 L10,100.0 Q0,100.0 0,90.0 L0,10 Q0,0 10,0 Z" stroke="#333333" stroke-width="2" style="fill:url(#g9)"/><g  transform='translate(0.0,37.0)'><text x='100.0' style='text-anchor: middle' y='-3.0'><tspan xml:space='preserve' font-size='18' font-family='Verdana' fill='#000000' font-weight='bold' >Crossover</tspan></text><text x='100.0' style='text-anchor: middle' y='19.2'><tspan xml:space='preserve' font-size='18' font-family='Verdana' fill='#000000' font-weight='bold' >branches of</tspan></text><text x='100.0' style='text-anchor: middle' y='41.4'><tspan xml:space='preserve' font-size='18' font-family='Verdana' fill='#000000' font-weight='bold' >elite ligands</tspan></text></g></g><g transform='translate(661.0,300.0)'><path d='M0.0,0.0 Q0.0,-25.0 40.0,-25.0 Q80.0,-25.0 79.84516129032242,-47.0 ' stroke-dasharray='23, 0' fill='none' stroke='#333333' stroke-width='3' /><g transform='translate(80.0,-50.0) rotate(462.0)'><path d='M13.0,-7.0 L3.0,0 L13.0,7.0 M0,0z' fill='none' stroke='#333333' stroke-width='3.0' /></g></g><g transform='translate(601.0,150.0) rotate(0 100.0 50.0)'><defs><linearGradient id='g11' x1='50%' y1='-25%' x2='50%' y2='100%'><stop stop-color='white' offset='0%'/><stop stop-color='#339966' offset='100%'/></linearGradient></defs><g transform='translate(4.0,4.0)'><path d="M190.0,0 Q200.0,0 200.0,10 L200.0,90.0 Q200.0,100.0 190.0,100.0 L10,100.0 Q0,100.0 0,90.0 L0,10 Q0,0 10,0 Z" stroke="#A8A8A8" stroke-width="0" stroke-opacity=".6" fill-opacity=".6" fill="#A8A8A8"/></g><path d="M190.0,0 Q200.0,0 200.0,10 L200.0,90.0 Q200.0,100.0 190.0,100.0 L10,100.0 Q0,100.0 0,90.0 L0,10 Q0,0 10,0 Z" stroke="#333333" stroke-width="2" style="fill:url(#g11)"/><g  transform='translate(0.0,47.0)'><text x='100.0' style='text-anchor: middle' y='-3.0'><tspan xml:space='preserve' font-size='18' font-family='Verdana' fill='#000000' font-weight='bold' >Invoke</tspan></text><text x='100.0' style='text-anchor: middle' y='19.2'><tspan xml:space='preserve' font-size='18' font-family='Verdana' fill='#000000' font-weight='bold' >idock</tspan></text></g></g><g transform='translate(301.0,0.0) rotate(0 100.0 50.0)'><defs><linearGradient id='g12' x1='50%' y1='-25%' x2='50%' y2='100%'><stop stop-color='white' offset='0%'/><stop stop-color='#339966' offset='100%'/></linearGradient></defs><g transform='translate(4.0,4.0)'><path d="M190.0,0 Q200.0,0 200.0,10 L200.0,90.0 Q200.0,100.0 190.0,100.0 L10,100.0 Q0,100.0 0,90.0 L0,10 Q0,0 10,0 Z" stroke="#A8A8A8" stroke-width="0" stroke-opacity=".6" fill-opacity=".6" fill="#A8A8A8"/></g><path d="M190.0,0 Q200.0,0 200.0,10 L200.0,90.0 Q200.0,100.0 190.0,100.0 L10,100.0 Q0,100.0 0,90.0 L0,10 Q0,0 10,0 Z" stroke="#333333" stroke-width="2" style="fill:url(#g12)"/><g  transform='translate(0.0,47.0)'><text x='100.0' style='text-anchor: middle' y='-3.0'><tspan xml:space='preserve' font-size='18' font-family='Verdana' fill='#000000' font-weight='bold' >Select elite ligands</tspan></text><text x='100.0' style='text-anchor: middle' y='19.2'><tspan xml:space='preserve' font-size='18' font-family='Verdana' fill='#000000' font-weight='bold' >by sorting</tspan></text></g></g><g transform='translate(501.0,500.0)'><path d='M0.0,0.0 Q50.0,0.0 50.0,-10.000000000000028 Q50.0,-20.000000000000057 96.99999999999999,-19.98969072164958 ' stroke-dasharray='23, 0' fill='none' stroke='#333333' stroke-width='3' /><g transform='translate(100.0,-20.000000000000057) rotate(539.0)'><path d='M13.0,-7.0 L3.0,0 L13.0,7.0 M0,0z' fill='none' stroke='#333333' stroke-width='3.0' /></g><g transform='translate(55.0,-7.5)'><rect fill='#ffffff' x='-16.0' y='-10.0' width='32.0' height='16'/><text x='0.0' style='text-anchor: middle' y='2.0'><tspan font-size='14px' font-family='Verdana' fill='#000000' font-weight='bold' >No</tspan></text></g></g><g transform='translate(741.0,450.0)'><path d='M0.0,0.0 Q0.0,-25.0 -40.0,-25.0 Q-80.0,-25.0 -79.84516129032242,-47.0 ' stroke-dasharray='23, 0' fill='none' stroke='#333333' stroke-width='3' /><g transform='translate(-80.0,-50.0) rotate(438.0)'><path d='M13.0,-7.0 L3.0,0 L13.0,7.0 M0,0z' fill='none' stroke='#333333' stroke-width='3.0' /></g></g><g transform='translate(741.0,150.0)'><path d='M0.0,0.0 Q0.0,-25.0 -40.0,-25.0 Q-80.0,-25.0 -79.84516129032242,-47.0 ' stroke-dasharray='23, 0' fill='none' stroke='#333333' stroke-width='3' /><g transform='translate(-80.0,-50.0) rotate(438.0)'><path d='M13.0,-7.0 L3.0,0 L13.0,7.0 M0,0z' fill='none' stroke='#333333' stroke-width='3.0' /></g></g><g transform='translate(601.0,0.0) rotate(0 100.0 50.0)'><defs><linearGradient id='g16' x1='50%' y1='-25%' x2='50%' y2='100%'><stop stop-color='white' offset='0%'/><stop stop-color='#339966' offset='100%'/></linearGradient></defs><g transform='translate(4.0,4.0)'><path d="M190.0,0 Q200.0,0 200.0,10 L200.0,90.0 Q200.0,100.0 190.0,100.0 L10,100.0 Q0,100.0 0,90.0 L0,10 Q0,0 10,0 Z" stroke="#A8A8A8" stroke-width="0" stroke-opacity=".6" fill-opacity=".6" fill="#A8A8A8"/></g><path d="M190.0,0 Q200.0,0 200.0,10 L200.0,90.0 Q200.0,100.0 190.0,100.0 L10,100.0 Q0,100.0 0,90.0 L0,10 Q0,0 10,0 Z" stroke="#333333" stroke-width="2" style="fill:url(#g16)"/><g  transform='translate(0.0,37.0)'><text x='100.0' style='text-anchor: middle' y='-3.0'><tspan xml:space='preserve' font-size='18' font-family='Verdana' fill='#000000' font-weight='bold' >Parse</tspan></text><text x='100.0' style='text-anchor: middle' y='19.2'><tspan xml:space='preserve' font-size='18' font-family='Verdana' fill='#000000' font-weight='bold' >free energy</tspan></text><text x='100.0' style='text-anchor: middle' y='41.4'><tspan xml:space='preserve' font-size='18' font-family='Verdana' fill='#000000' font-weight='bold' >and coordinates</tspan></text></g></g><g transform='translate(601.0,29.999999999999943)'><path d='M0.0,0.0 Q-50.0,0.0 -50.0,20.00000000000003 Q-50.0,40.00000000000006 -96.99999999999999,39.97938144329916 ' stroke-dasharray='23, 0' fill='none' stroke='#333333' stroke-width='3' /><g transform='translate(-100.0,40.00000000000006) rotate(359.0)'><path d='M13.0,-7.0 L3.0,0 L13.0,7.0 M0,0z' fill='none' stroke='#333333' stroke-width='3.0' /></g></g><g transform='translate(301.0,500.0)'><path d='M-3.0,-0.16661926768574473 Q-58.0,0.0 -58.0,-214.99999999999997 Q-58.0,-429.99999999999994 0.0,-429.99999999999994 ' stroke-dasharray='23, 0' fill='none' stroke='#333333' stroke-width='3' /><g transform='translate(0.0,0.0) rotate(190.0)'><path d='M13.0,-7.0 L3.0,0 L13.0,7.0 M0,0z' fill='none' stroke='#333333' stroke-width='3.0' /></g></g><g transform='translate(1.0,0.0) rotate(0 100.0 50.0)'><defs><linearGradient id='g19' x1='50%' y1='-25%' x2='50%' y2='100%'><stop stop-color='white' offset='0%'/><stop stop-color='#ff0000' offset='100%'/></linearGradient></defs><g transform='translate(4.0,4.0)'><path d="M50.0,0 L150.0,0 Q170.71067811865476,-7.105427357601002E-15 185.35533905932738,14.644660940672615 Q200.0,29.289321881345238 200.0,49.999999999999986 Q200.0,70.71067811865476 185.35533905932738,85.35533905932738 Q170.71067811865476,100.0 150.0,100.0 L50.0,100.0 Q29.289321881345252,100.0 14.64466094067263,85.35533905932738 Q0.0,70.71067811865476 0.0,50.0 Q-7.105427357601002E-15,29.289321881345252 14.644660940672615,14.64466094067263 Q29.289321881345238,0.0 49.99999999999999,0.0 Z" stroke="#A8A8A8" stroke-width="0" stroke-opacity=".6" fill-opacity=".6" fill="#A8A8A8"/></g><path d="M50.0,0 L150.0,0 Q170.71067811865476,-7.105427357601002E-15 185.35533905932738,14.644660940672615 Q200.0,29.289321881345238 200.0,49.999999999999986 Q200.0,70.71067811865476 185.35533905932738,85.35533905932738 Q170.71067811865476,100.0 150.0,100.0 L50.0,100.0 Q29.289321881345252,100.0 14.64466094067263,85.35533905932738 Q0.0,70.71067811865476 0.0,50.0 Q-7.105427357601002E-15,29.289321881345252 14.644660940672615,14.64466094067263 Q29.289321881345238,0.0 49.99999999999999,0.0 Z" stroke="#333333" stroke-width="2" style="fill:url(#g19)"/><g  transform='translate(0.0,58.0)'><text x='100.0' style='text-anchor: middle' y='-3.0'><tspan xml:space='preserve' font-size='18' font-family='Verdana' fill='#000000' font-weight='bold' >Start</tspan></text></g></g><g transform='translate(301.0,150.0) rotate(0 100.0 50.0)'><defs><linearGradient id='g20' x1='50%' y1='-25%' x2='50%' y2='100%'><stop stop-color='white' offset='0%'/><stop stop-color='#ff0000' offset='100%'/></linearGradient></defs><g transform='translate(4.0,4.0)'><path d="M50.0,0 L150.0,0 Q170.71067811865476,-7.105427357601002E-15 185.35533905932738,14.644660940672615 Q200.0,29.289321881345238 200.0,49.999999999999986 Q200.0,70.71067811865476 185.35533905932738,85.35533905932738 Q170.71067811865476,100.0 150.0,100.0 L50.0,100.0 Q29.289321881345252,100.0 14.64466094067263,85.35533905932738 Q0.0,70.71067811865476 0.0,50.0 Q-7.105427357601002E-15,29.289321881345252 14.644660940672615,14.64466094067263 Q29.289321881345238,0.0 49.99999999999999,0.0 Z" stroke="#A8A8A8" stroke-width="0" stroke-opacity=".6" fill-opacity=".6" fill="#A8A8A8"/></g><path d="M50.0,0 L150.0,0 Q170.71067811865476,-7.105427357601002E-15 185.35533905932738,14.644660940672615 Q200.0,29.289321881345238 200.0,49.999999999999986 Q200.0,70.71067811865476 185.35533905932738,85.35533905932738 Q170.71067811865476,100.0 150.0,100.0 L50.0,100.0 Q29.289321881345252,100.0 14.64466094067263,85.35533905932738 Q0.0,70.71067811865476 0.0,50.0 Q-7.105427357601002E-15,29.289321881345252 14.644660940672615,14.64466094067263 Q29.289321881345238,0.0 49.99999999999999,0.0 Z" stroke="#333333" stroke-width="2" style="fill:url(#g20)"/><g  transform='translate(0.0,58.0)'><text x='100.0' style='text-anchor: middle' y='-3.0'><tspan xml:space='preserve' font-size='18' font-family='Verdana' fill='#000000' font-weight='bold' >End</tspan></text></g></g><g transform='translate(301.0,300.0) rotate(0 100.0 50.0)'><defs><linearGradient id='g21' x1='50%' y1='-25%' x2='50%' y2='100%'><stop stop-color='white' offset='0%'/><stop stop-color='#339966' offset='100%'/></linearGradient></defs><g transform='translate(4.0,4.0)'><path d="M190.0,0 Q200.0,0 200.0,10 L200.0,90.0 Q200.0,100.0 190.0,100.0 L10,100.0 Q0,100.0 0,90.0 L0,10 Q0,0 10,0 Z" stroke="#A8A8A8" stroke-width="0" stroke-opacity=".6" fill-opacity=".6" fill="#A8A8A8"/></g><path d="M190.0,0 Q200.0,0 200.0,10 L200.0,90.0 Q200.0,100.0 190.0,100.0 L10,100.0 Q0,100.0 0,90.0 L0,10 Q0,0 10,0 Z" stroke="#333333" stroke-width="2" style="fill:url(#g21)"/><g  transform='translate(0.0,47.0)'><text x='100.0' style='text-anchor: middle' y='-3.0'><tspan xml:space='preserve' font-size='18' font-family='Verdana' fill='#000000' font-weight='bold' >Destroy</tspan></text><text x='100.0' style='text-anchor: middle' y='19.2'><tspan xml:space='preserve' font-size='18' font-family='Verdana' fill='#000000' font-weight='bold' >thread pool</tspan></text></g></g><g transform='translate(401.0,450.0)'><path d='M0.0,0.0 Q0.0,-20.0 -20.0,-20.0 Q-40.0,-20.0 -39.94526315789462,-46.99999999999999 ' stroke-dasharray='23, 0' fill='none' stroke='#333333' stroke-width='3' /><g transform='translate(-40.0,-50.0) rotate(446.0)'><path d='M13.0,-7.0 L3.0,0 L13.0,7.0 M0,0z' fill='none' stroke='#333333' stroke-width='3.0' /></g><g transform='translate(-14.5,-17.5)'><rect fill='#ffffff' x='-18.5' y='-10.0' width='37.0' height='16'/><text x='0.0' style='text-anchor: middle' y='2.0'><tspan font-size='14px' font-family='Verdana' fill='#000000' font-weight='bold' >Yes</tspan></text></g><g transform='translate(-14.5,-17.5)'><rect fill='#ffffff' x='-18.5' y='-10.0' width='37.0' height='16'/><text x='0.0' style='text-anchor: middle' y='2.0'><tspan font-size='14px' font-family='Verdana' fill='#000000' font-weight='bold' >Yes</tspan></text></g><g transform='translate(-15.5,-17.5)'><rect fill='#ffffff' x='-17.5' y='-10.0' width='35.0' height='16'/><text x='0.0' style='text-anchor: middle' y='2.0'><tspan font-size='14px' font-family='Verdana' fill='#000000' font-weight='bold' >Yes</tspan></text></g><g transform='translate(-14.5,-17.5)'><rect fill='#ffffff' x='-18.5' y='-10.0' width='37.0' height='16'/><text x='0.0' style='text-anchor: middle' y='2.0'><tspan font-size='14px' font-family='Verdana' fill='#000000' font-weight='bold' >Yes</tspan></text></g></g><g transform='translate(361.0,300.0)'><path d='M0.0,0.0 Q0.0,-25.0 20.0,-25.0 Q40.0,-25.0 39.92258064516121,-47.0 ' stroke-dasharray='23, 0' fill='none' stroke='#333333' stroke-width='3' /><g transform='translate(40.0,-50.0) rotate(456.0)'><path d='M13.0,-7.0 L3.0,0 L13.0,7.0 M0,0z' fill='none' stroke='#333333' stroke-width='3.0' /></g></g></svg>